<svg version="1.1" id="Layer_1" xmlns="http://www.w3.org/2000/svg" xmlns:xlink="http://www.w3.org/1999/xlink" x="0px" y="0px"
	 width="170" viewBox="0 0 284 177" enable-background="new 0 0 284 177" xml:space="preserve">
<path fill="#FFFFFF" opacity="1.000000" stroke="none" 
	d="
M175.000000,1.000000 
	C211.647934,1.000000 248.295883,1.000000 284.971924,1.000000 
	C284.971924,59.951126 284.971924,118.902267 284.971924,177.926697 
	C190.430603,177.926697 95.861115,177.926697 1.145820,177.926697 
	C1.145820,119.000229 1.145820,60.000172 1.145820,1.000000 
	C37.099361,1.000000 73.081024,1.000000 109.547897,1.468387 
	C110.033112,9.381193 110.033112,16.825615 110.033112,24.495035 
	C116.512123,24.495035 122.578644,24.495035 128.737534,24.495035 
	C128.737534,21.914726 128.737534,19.532461 128.737534,16.762444 
	C125.033997,16.762444 121.619141,16.762444 118.315811,16.762444 
	C118.315811,13.955287 118.315811,11.553046 118.315811,8.806042 
	C122.040665,8.806042 125.464851,8.806042 129.000000,8.806042 
	C129.000000,5.964316 129.000000,3.482158 129.000000,1.000000 
	C130.066666,1.000000 131.133347,1.000000 132.587021,1.466780 
	C132.974030,9.512539 132.974030,17.091518 132.974030,24.841917 
	C139.425400,24.841917 145.494736,24.841917 151.603683,24.841917 
	C151.603683,19.622845 151.603683,14.597939 151.603683,9.097071 
	C147.895721,9.097071 144.505203,9.097071 141.114685,9.097071 
	C141.108887,8.733572 141.103088,8.370073 141.097275,8.006575 
	C144.621521,8.006575 148.145782,8.006575 152.000000,8.006575 
	C152.000000,5.270796 152.000000,3.135398 152.000000,1.000000 
	C152.750000,1.000000 153.500000,1.000000 154.688385,1.215050 
	C155.234329,1.735196 155.442017,1.937549 155.803101,2.497119 
	C155.856384,7.369192 155.856384,11.781304 155.856384,16.566164 
	C159.618286,16.566164 162.750214,16.566164 165.837646,16.777313 
	C165.888260,17.261845 165.941223,17.543161 165.497223,17.897896 
	C162.090775,17.963383 159.139114,17.963383 156.064957,17.963383 
	C156.064957,20.491158 156.064957,22.564199 156.064957,24.720312 
	C162.311066,24.720312 168.353760,24.720312 174.398193,24.720312 
	C174.398193,19.485764 174.398193,14.571402 174.398193,9.070189 
	C170.839920,9.070189 167.536270,9.070189 164.232620,9.070189 
	C164.231964,8.685865 164.231323,8.301543 164.230667,7.917220 
	C167.622192,7.917220 171.013733,7.917220 174.412567,7.917220 
	C174.639572,5.244268 174.819794,3.122134 175.000000,1.000000 
M81.031837,40.819748 
	C81.983383,50.753254 82.979469,60.682735 83.878105,70.621025 
	C86.558296,100.262299 89.247269,129.903015 91.780449,159.556946 
	C92.019485,162.355103 92.868698,163.475128 95.622078,164.201797 
	C110.368431,168.093658 125.028320,172.312683 139.767914,176.231216 
	C141.881805,176.793198 144.396378,176.830734 146.504379,176.273895 
	C160.925949,172.464279 175.245773,168.263611 189.697769,164.578751 
	C193.694290,163.559753 194.816620,161.697052 195.099426,157.805420 
	C196.316666,141.056122 197.834702,124.327751 199.342499,107.600716 
	C201.447144,84.252197 203.645905,60.912159 205.755615,37.564083 
	C205.797516,37.100506 205.240540,36.582813 204.049805,35.888374 
	C163.056702,35.888374 122.063591,35.888374 80.913223,35.888374 
	C81.011642,37.643070 81.076332,38.796352 81.031837,40.819748 
z"/>
<path fill="#050505" opacity="1.000000" stroke="none" 
	d="
M151.531723,1.000000 
	C152.000000,3.135398 152.000000,5.270796 152.000000,8.006575 
	C148.145782,8.006575 144.621521,8.006575 141.097275,8.006575 
	C141.103088,8.370073 141.108887,8.733572 141.114685,9.097071 
	C144.505203,9.097071 147.895721,9.097071 151.603683,9.097071 
	C151.603683,14.597939 151.603683,19.622845 151.603683,24.841917 
	C145.494736,24.841917 139.425400,24.841917 132.974030,24.841917 
	C132.974030,17.091518 132.974030,9.512539 132.987015,1.466780 
	C139.021149,1.000000 145.042297,1.000000 151.531723,1.000000 
z"/>
<path fill="#090909" opacity="1.000000" stroke="none" 
	d="
M165.882141,16.566162 
	C162.750214,16.566164 159.618286,16.566164 155.856384,16.566164 
	C155.856384,11.781304 155.856384,7.369192 155.909607,2.248431 
	C155.975204,1.359855 155.987595,1.179927 156.000000,1.000000 
	C162.021149,1.000000 168.042297,1.000000 174.531738,1.000000 
	C174.819794,3.122134 174.639572,5.244268 174.412567,7.917220 
	C171.013733,7.917220 167.622192,7.917220 164.230667,7.917220 
	C164.231323,8.301543 164.231964,8.685865 164.232620,9.070189 
	C167.536270,9.070189 170.839920,9.070189 174.398193,9.070189 
	C174.398193,14.571402 174.398193,19.485764 174.398193,24.720312 
	C168.353760,24.720312 162.311066,24.720312 156.064957,24.720312 
	C156.064957,22.564199 156.064957,20.491158 156.064957,17.963383 
	C159.139114,17.963383 162.090775,17.963383 165.786728,17.928682 
	C166.314728,17.451376 166.098434,17.008770 165.882141,16.566162 
z"/>
<path fill="#060608" opacity="1.000000" stroke="none" 
	d="
M128.531723,1.000000 
	C129.000000,3.482158 129.000000,5.964316 129.000000,8.806042 
	C125.464851,8.806042 122.040665,8.806042 118.315811,8.806042 
	C118.315811,11.553046 118.315811,13.955287 118.315811,16.762444 
	C121.619141,16.762444 125.033997,16.762444 128.737534,16.762444 
	C128.737534,19.532461 128.737534,21.914726 128.737534,24.495035 
	C122.578644,24.495035 116.512123,24.495035 110.033112,24.495035 
	C110.033112,16.825615 110.033112,9.381193 110.016556,1.468387 
	C116.021149,1.000000 122.042297,1.000000 128.531723,1.000000 
z"/>
<path fill="#CCCCCE" opacity="1.000000" stroke="none" 
	d="
M155.750000,1.000000 
	C155.987595,1.179927 155.975204,1.359855 155.856323,1.788470 
	C155.442017,1.937549 155.234329,1.735196 155.063385,1.215050 
	C155.000000,1.000000 155.500000,1.000000 155.750000,1.000000 
z"/>
<path fill="#284FE4" opacity="1.000000" stroke="none" 
	d="
M204.962952,36.090366 
	C205.240540,36.582813 205.797516,37.100506 205.755615,37.564083 
	C203.645905,60.912159 201.447144,84.252197 199.342499,107.600716 
	C197.834702,124.327751 196.316666,141.056122 195.099426,157.805420 
	C194.816620,161.697052 193.694290,163.559753 189.697769,164.578751 
	C175.245773,168.263611 160.925949,172.464279 146.504379,176.273895 
	C144.396378,176.830734 141.881805,176.793198 139.767914,176.231216 
	C125.028320,172.312683 110.368431,168.093658 95.622078,164.201797 
	C92.868698,163.475128 92.019485,162.355103 91.780449,159.556946 
	C89.247269,129.903015 86.558296,100.262299 83.878105,70.621025 
	C82.979469,60.682735 81.983383,50.753254 81.354988,40.124725 
	C83.561157,38.620613 85.441582,37.112686 87.327568,37.105682 
	C124.633278,36.967106 161.939651,37.015850 199.245789,36.963631 
	C201.151917,36.960964 203.057251,36.394390 204.962952,36.090366 
M142.562866,92.200005 
	C142.283493,92.401482 142.096008,92.667679 141.078949,93.187836 
	C130.050705,93.118088 119.022453,93.048340 107.790100,92.651810 
	C107.538742,92.815918 107.287384,92.980019 106.965714,94.033363 
	C107.656227,99.075531 108.346741,104.117706 109.206497,109.453384 
	C109.459175,109.354530 109.711853,109.255676 110.896484,109.012878 
	C121.275665,109.061043 131.654846,109.109207 142.197739,109.501869 
	C142.350693,109.723747 142.560898,109.850952 142.937256,110.829552 
	C142.968033,118.495354 142.998810,126.161163 142.275406,133.775421 
	C140.525787,133.264954 138.786926,132.713608 137.024811,132.250671 
	C125.926582,129.334991 125.928139,129.341156 124.771309,118.062111 
	C124.742584,117.782043 124.432854,117.530792 124.690117,117.911911 
	C119.218964,117.911911 114.208046,117.911911 108.832710,117.911911 
	C109.552895,125.266731 110.027672,131.884979 110.979301,138.433945 
	C111.185051,139.849854 112.881432,141.754578 114.273788,142.178986 
	C123.808578,145.085297 133.445328,147.657120 143.014160,151.228500 
	C143.014160,156.001480 143.014160,160.774460 143.014160,165.934982 
	C144.852615,165.723892 145.997879,165.739258 147.058823,165.447723 
	C156.951462,162.729431 166.769699,159.710754 176.735565,157.300293 
	C182.264999,155.962860 185.190338,154.267899 185.378250,147.446121 
	C185.768402,133.283081 187.661819,119.158707 189.016296,105.026009 
	C189.881989,95.993179 190.989990,86.983017 191.805023,77.946068 
	C192.651230,68.563377 193.250656,59.158657 194.011719,49.767929 
	C194.236633,46.992832 193.164139,45.942474 190.320770,45.961227 
	C175.848434,46.056709 161.374527,46.076038 146.902695,45.948215 
	C143.770752,45.920551 142.819061,47.099773 142.962662,50.053104 
	C143.148285,53.870667 143.028076,57.703094 142.117905,61.735287 
	C129.542938,61.735287 116.967979,61.735287 103.888290,61.735287 
	C104.416740,67.238564 104.883850,72.103104 105.428116,77.771095 
	C117.763374,77.771095 129.849426,77.771095 142.129578,78.254875 
	C142.383713,78.477768 142.637848,78.700653 142.962723,79.856186 
	C142.976379,83.894562 142.990021,87.932930 142.562866,92.200005 
z"/>
<path fill="#043EE3" opacity="1.000000" stroke="none" 
	d="
M204.506378,35.989372 
	C203.057251,36.394390 201.151917,36.960964 199.245789,36.963631 
	C161.939651,37.015850 124.633278,36.967106 87.327568,37.105682 
	C85.441582,37.112686 83.561157,38.620613 81.409576,39.689667 
	C81.076332,38.796352 81.011642,37.643070 80.913223,35.888374 
	C122.063591,35.888374 163.056702,35.888374 204.506378,35.989372 
z"/>
<path fill="#CCCCCE" opacity="1.000000" stroke="none" 
	d="
M165.837646,16.777311 
	C166.098434,17.008770 166.314728,17.451376 166.241516,17.863197 
	C165.941223,17.543161 165.888260,17.261845 165.837646,16.777311 
z"/>
<path fill="#2C66F1" opacity="1.000000" stroke="none" 
	d="
M143.039566,61.529121 
	C143.028076,57.703094 143.148285,53.870667 142.962662,50.053104 
	C142.819061,47.099773 143.770752,45.920551 146.902695,45.948215 
	C161.374527,46.076038 175.848434,46.056709 190.320770,45.961227 
	C193.164139,45.942474 194.236633,46.992832 194.011719,49.767929 
	C193.250656,59.158657 192.651230,68.563377 191.805023,77.946068 
	C190.989990,86.983017 189.881989,95.993179 189.016296,105.026009 
	C187.661819,119.158707 185.768402,133.283081 185.378250,147.446121 
	C185.190338,154.267899 182.264999,155.962860 176.735565,157.300293 
	C166.769699,159.710754 156.951462,162.729431 147.058823,165.447723 
	C145.997879,165.739258 144.852615,165.723892 143.014160,165.934982 
	C143.014160,160.774460 143.014160,156.001480 143.033539,150.671936 
	C143.052917,150.115387 142.978958,149.906723 143.283173,150.086899 
	C143.866425,150.436523 144.206131,150.808868 144.415802,150.746201 
	C153.227722,148.111832 161.975952,145.244385 170.854904,142.864044 
	C174.496552,141.887772 175.774368,140.283630 176.040237,136.471985 
	C177.011505,122.546570 178.473251,108.655899 179.690781,94.746933 
	C180.640457,83.897804 181.501923,73.040947 182.415894,62.027195 
	C168.904068,62.027195 155.950836,62.027195 143.024155,61.904030 
	C143.050690,61.780865 143.039566,61.529121 143.039566,61.529121 
z"/>
<path fill="#E8E9EB" opacity="1.000000" stroke="none" 
	d="
M143.051071,150.226044 
	C133.445328,147.657120 123.808578,145.085297 114.273788,142.178986 
	C112.881432,141.754578 111.185051,139.849854 110.979301,138.433945 
	C110.027672,131.884979 109.552895,125.266731 108.832710,117.911911 
	C114.208046,117.911911 119.218964,117.911911 124.690117,117.911911 
	C124.432854,117.530792 124.742584,117.782043 124.771309,118.062111 
	C125.928139,129.341156 125.926582,129.334991 137.024811,132.250671 
	C138.786926,132.713608 140.525787,133.264954 142.648926,133.888931 
	C143.022461,134.002441 142.959946,134.166550 142.970123,134.622086 
	C142.979843,140.020660 142.979401,144.963684 142.978958,149.906723 
	C142.978958,149.906723 143.052917,150.115387 143.051071,150.226044 
z"/>
<path fill="#EBEBEB" opacity="1.000000" stroke="none" 
	d="
M141.935486,77.771095 
	C129.849426,77.771095 117.763374,77.771095 105.428116,77.771095 
	C104.883850,72.103104 104.416740,67.238564 103.888290,61.735287 
	C116.967979,61.735287 129.542938,61.735287 142.578735,61.632202 
	C143.039566,61.529121 143.050690,61.780865 143.023102,62.368950 
	C143.008759,67.683975 143.022003,72.410919 142.983154,77.414719 
	C142.970901,77.875130 143.010757,78.058662 142.823227,78.002754 
	C142.375732,77.765900 142.155609,77.768494 141.935486,77.771095 
z"/>
<path fill="#E7E7EB" opacity="1.000000" stroke="none" 
	d="
M142.034027,109.157364 
	C131.654846,109.109207 121.275665,109.061043 110.198532,109.040802 
	C109.500572,109.068718 109.037254,109.159874 109.037254,109.159874 
	C108.346741,104.117706 107.656227,99.075531 107.243996,93.568184 
	C107.522278,93.103004 107.994202,92.978584 107.994202,92.978592 
	C119.022453,93.048340 130.050705,93.118088 141.819244,93.184753 
	C142.742081,93.253311 142.924652,93.324936 143.078796,93.836823 
	C143.010361,99.230583 142.970337,104.184097 142.705353,109.102005 
	C142.480392,109.066414 142.034027,109.157364 142.034027,109.157364 
z"/>
<path fill="#2B66F1" opacity="1.000000" stroke="none" 
	d="
M143.026031,133.914703 
	C142.998810,126.161163 142.968033,118.495354 142.955521,110.347267 
	C142.973785,109.864983 143.093918,109.945129 143.555588,109.967789 
	C149.962463,109.990448 155.907669,109.990448 162.234436,109.990448 
	C161.784286,116.058472 161.544708,121.522957 160.845215,126.927917 
	C160.696182,128.079453 159.047684,129.543365 157.791962,129.955704 
	C152.913132,131.557816 147.914185,132.794113 142.959946,134.166550 
	C142.959946,134.166550 143.022461,134.002441 143.026031,133.914703 
z"/>
<path fill="#2A65F1" opacity="1.000000" stroke="none" 
	d="
M143.003677,91.971306 
	C142.990021,87.932930 142.976379,83.894562 142.955597,79.380630 
	C142.948471,78.905083 143.000687,78.879021 143.468704,78.899353 
	C150.839600,78.937813 157.742493,78.955933 164.799744,79.362350 
	C164.642273,82.165894 164.330444,84.581131 163.727448,87.255966 
	C163.376907,91.307732 161.357803,92.297874 157.782242,92.076111 
	C152.877213,91.771904 147.939545,91.994156 143.008820,91.992813 
	C143.001770,91.994827 143.003677,91.971306 143.003677,91.971306 
z"/>
<path fill="#1946E4" opacity="1.000000" stroke="none" 
	d="
M142.032532,78.012985 
	C142.155609,77.768494 142.375732,77.765900 142.792511,78.159973 
	C142.989166,78.556648 143.000687,78.879021 143.000687,78.879021 
	C143.000687,78.879021 142.948471,78.905083 142.920227,78.914314 
	C142.637848,78.700653 142.383713,78.477768 142.032532,78.012985 
z"/>
<path fill="#0F42E4" opacity="1.000000" stroke="none" 
	d="
M107.892151,92.815201 
	C107.994202,92.978584 107.522278,93.103004 107.279152,93.123566 
	C107.287384,92.980019 107.538742,92.815918 107.892151,92.815201 
z"/>
<path fill="#0F42E4" opacity="1.000000" stroke="none" 
	d="
M143.107239,93.396568 
	C142.924652,93.324936 142.742081,93.253311 142.279968,93.090134 
	C142.096008,92.667679 142.283493,92.401482 142.783264,92.085655 
	C143.003677,91.971306 143.001770,91.994827 143.004532,92.245323 
	C143.007446,92.664108 143.007599,92.832397 143.052383,93.094681 
	C143.097015,93.188690 143.107239,93.396568 143.107239,93.396568 
z"/>
<path fill="#0F42E4" opacity="1.000000" stroke="none" 
	d="
M109.121872,109.306625 
	C109.037254,109.159874 109.500572,109.068718 109.732552,109.112762 
	C109.711853,109.255676 109.459175,109.354530 109.121872,109.306625 
z"/>
<path fill="#0F42E4" opacity="1.000000" stroke="none" 
	d="
M142.115875,109.329620 
	C142.034027,109.157364 142.480392,109.066414 142.746735,109.303818 
	C143.013092,109.541222 143.093918,109.945129 143.093918,109.945129 
	C143.093918,109.945129 142.973785,109.864983 142.901062,109.874229 
	C142.560898,109.850952 142.350693,109.723747 142.115875,109.329620 
z"/>
<path fill="#FDFEFF" opacity="1.000000" stroke="none" 
	d="
M143.555588,109.967789 
	C143.093918,109.945129 143.013092,109.541222 142.971710,109.339417 
	C142.970337,104.184097 143.010361,99.230583 143.078796,93.836823 
	C143.107239,93.396568 143.097015,93.188690 143.514175,93.175911 
	C150.475952,93.163132 157.020584,93.163132 163.584274,93.163132 
	C163.788010,92.330605 163.979950,91.882927 163.993301,91.429985 
	C164.036835,89.953148 164.015182,88.474396 164.018631,86.996376 
	C164.330444,84.581131 164.642273,82.165894 164.768524,78.984520 
	C163.054535,77.948311 161.531967,77.489471 159.996658,77.441895 
	C154.345139,77.266762 148.689392,77.227951 143.035248,77.137848 
	C143.022003,72.410919 143.008759,67.683975 142.996582,62.492119 
	C155.950836,62.027195 168.904068,62.027195 182.415894,62.027195 
	C181.501923,73.040947 180.640457,83.897804 179.690781,94.746933 
	C178.473251,108.655899 177.011505,122.546570 176.040237,136.471985 
	C175.774368,140.283630 174.496552,141.887772 170.854904,142.864044 
	C161.975952,145.244385 153.227722,148.111832 144.415802,150.746201 
	C144.206131,150.808868 143.866425,150.436523 143.283173,150.086899 
	C142.979401,144.963684 142.979843,140.020660 142.970123,134.622086 
	C147.914185,132.794113 152.913132,131.557816 157.791962,129.955704 
	C159.047684,129.543365 160.696182,128.079453 160.845215,126.927917 
	C161.544708,121.522957 161.784286,116.058472 162.234436,109.990448 
	C155.907669,109.990448 149.962463,109.990448 143.555588,109.967789 
z"/>
<path fill="#284FE4" opacity="1.000000" stroke="none" 
	d="
M142.983154,77.414719 
	C148.689392,77.227951 154.345139,77.266762 159.996658,77.441895 
	C161.531967,77.489471 163.054535,77.948311 164.614166,78.596222 
	C157.742493,78.955933 150.839600,78.937813 143.468704,78.899353 
	C143.000687,78.879021 142.989166,78.556648 143.019882,78.399429 
	C143.010757,78.058662 142.970901,77.875130 142.983154,77.414719 
z"/>
<path fill="#0E5AF0" opacity="1.000000" stroke="none" 
	d="
M163.727448,87.255966 
	C164.015182,88.474396 164.036835,89.953148 163.993301,91.429985 
	C163.979950,91.882927 163.788010,92.330605 163.584274,93.163132 
	C157.020584,93.163132 150.475952,93.163132 143.469543,93.081909 
	C143.007599,92.832397 143.007446,92.664108 143.011566,92.243317 
	C147.939545,91.994156 152.877213,91.771904 157.782242,92.076111 
	C161.357803,92.297874 163.376907,91.307732 163.727448,87.255966 
z"/>
</svg>