<svg version="1.1" id="Layer_1" xmlns="http://www.w3.org/2000/svg" xmlns:xlink="http://www.w3.org/1999/xlink" x="0px" y="0px"
	 width="100%" viewBox="0 0 1024 640" enable-background="new 0 0 1024 640" xml:space="preserve">
<path fill="#000000" opacity="1.000000" stroke="none" 
	d="
M366.632141,437.999329 
	C366.636505,421.958679 366.636505,406.418060 366.636505,390.519928 
	C371.677429,391.339722 373.430359,394.310455 375.466400,396.825745 
	C378.726288,400.852936 382.168549,403.104218 387.445984,399.949799 
	C390.641907,398.039551 394.316528,399.817902 397.766846,399.797150 
	C448.738251,399.490509 499.710358,399.234100 550.682556,399.158051 
	C576.489014,399.119537 602.296692,399.408661 628.101562,399.730164 
	C630.602234,399.761353 634.275085,398.140167 635.473328,401.865479 
	C636.959595,406.486328 634.612305,411.056427 630.118652,412.895325 
	C623.626038,415.552155 616.969360,418.121002 609.799255,417.019226 
	C595.488037,414.820129 581.207764,417.137238 566.914368,416.923828 
	C538.450989,416.498810 509.970490,417.222046 481.522003,415.948700 
	C472.204590,415.531647 462.901154,415.023743 453.569275,414.906219 
	C442.893066,414.771759 432.569031,418.446259 421.824554,416.957214 
	C421.788605,419.156036 423.052948,418.877960 423.893646,418.917053 
	C464.189026,420.789795 504.511932,420.573425 544.807251,419.498871 
	C556.992737,419.173859 569.099365,419.837708 581.236755,419.938202 
	C597.551636,420.073273 613.885925,419.491150 630.189697,420.636292 
	C632.806702,420.820099 635.631104,420.383911 636.765564,423.699890 
	C632.968872,425.986328 393.923218,426.191437 389.177795,423.868561 
	C390.498810,420.323608 393.495300,420.442871 396.482330,420.295044 
	C403.418610,419.951813 410.457458,420.582855 418.647491,417.897186 
	C415.504364,417.142395 413.580383,416.673889 411.653168,416.218811 
	C404.829071,414.607239 398.198334,412.875549 392.892944,407.608856 
	C389.609283,404.349091 384.918213,404.428772 380.583984,405.474426 
	C377.013275,406.335876 376.101898,409.518005 376.314789,412.575897 
	C377.226410,425.669983 372.422821,438.211823 372.820831,451.274017 
	C372.941711,455.240234 371.826050,459.360443 367.287262,463.524506 
	C366.305786,454.255463 366.700623,446.362366 366.632141,437.999329 
z"/>
<path fill="#000000" opacity="1.000000" stroke="none" 
	d="
M203.000000,498.820984 
	C254.877411,499.002106 306.262390,498.478943 357.922363,499.041809 
	C355.676819,509.708832 347.746368,516.413513 337.354095,516.916138 
	C303.270020,518.564453 269.177856,519.006653 235.067047,517.435059 
	C223.267563,516.891479 211.452499,517.297180 199.633575,517.866577 
	C177.831100,518.916870 156.049408,516.565186 134.234406,517.005127 
	C120.363701,517.284912 115.807274,507.521393 114.907555,496.468964 
	C114.780487,494.907867 114.827568,493.085449 117.479523,492.023102 
	C118.839066,499.967804 124.833893,498.882721 130.565704,498.860107 
	C154.543488,498.765381 178.521851,498.820496 203.000000,498.820984 
z"/>
<path fill="#000000" opacity="1.000000" stroke="none" 
	d="
M789.983521,498.905914 
	C798.394592,498.620422 806.069336,499.051666 812.830811,504.094849 
	C816.415405,506.768494 816.417480,508.106018 813.411194,511.486115 
	C808.713074,516.768433 802.505859,516.812378 796.438293,517.008850 
	C782.471863,517.461121 768.497742,517.534546 754.516174,517.293335 
	C740.049805,517.043762 725.561768,518.050964 711.132996,516.107849 
	C703.963440,515.142334 697.087891,513.507874 690.918335,509.494110 
	C687.735535,507.423462 685.638611,504.642456 683.747070,500.013428 
	C719.408508,497.677612 754.468506,499.286316 789.983521,498.905914 
z"/>
<path fill="#000000" opacity="1.000000" stroke="none" 
	d="
M454.352875,147.850281 
	C468.888062,149.224991 482.986115,147.229218 497.084442,147.830307 
	C507.564819,148.277130 518.022766,147.321442 528.533508,147.536194 
	C539.614075,147.762573 550.758484,149.419220 561.867859,147.927582 
	C564.008240,147.640198 565.019714,149.591125 566.705933,149.679550 
	C574.764343,148.826981 582.185852,143.717041 590.969116,147.392014 
	C595.331726,149.217346 600.443848,148.448456 605.188721,148.131653 
	C608.802734,147.890335 609.572815,149.903503 609.764648,152.577850 
	C609.974670,155.507248 608.200439,156.176163 605.559570,155.913757 
	C598.804077,155.242493 592.039734,156.093750 585.291382,155.997543 
	C579.350403,155.912827 573.331177,156.303131 567.445679,154.496414 
	C566.075012,154.075638 564.122498,156.047333 562.447693,156.028427 
	C557.144958,155.968536 551.825500,155.963959 546.525818,155.800140 
	C540.139954,155.602768 533.681641,156.065720 527.240601,155.952484 
	C523.956421,155.894775 520.601379,156.907455 517.637634,154.608917 
	C517.286194,154.336349 516.596375,154.077911 516.283630,154.239410 
	C508.834778,158.085678 500.831604,154.798386 493.129395,156.027893 
	C487.772217,156.883026 482.157135,156.318787 476.670013,156.086945 
	C473.566376,155.955795 470.693115,156.056915 468.090424,158.768158 
	C466.191284,155.482208 463.608398,155.717484 460.471588,155.986313 
	C454.711121,156.479965 448.872040,156.008377 443.066315,156.042679 
	C440.420013,156.058304 437.758728,156.066010 435.532349,158.030350 
	C434.504150,158.937531 433.011047,159.068253 431.738617,158.394333 
	C423.618256,154.093445 414.791168,156.738953 406.329620,155.812149 
	C397.856750,154.884109 389.356567,156.377747 380.802277,155.860123 
	C372.527710,155.359436 364.170654,155.813538 355.859131,155.272980 
	C355.133881,149.575562 357.007050,147.645401 362.557007,148.180450 
	C363.681152,148.288834 364.885010,147.996582 366.000793,147.697556 
	C374.376282,145.452866 382.722046,146.970398 391.153961,147.219971 
	C397.630585,147.411682 404.230774,147.439285 410.758179,147.563660 
	C416.234283,147.667999 421.896149,145.218307 426.736572,146.322586 
	C434.380554,148.066452 441.877777,147.439255 449.429169,147.892334 
	C450.918976,147.981720 452.421448,147.859741 454.352875,147.850281 
z"/>
<path fill="#000000" opacity="1.000000" stroke="none" 
	d="
M647.163818,105.849556 
	C656.813049,105.756920 656.813049,105.756920 661.454956,110.081284 
	C661.772461,110.028847 662.190430,110.081688 662.390137,109.897667 
	C664.192810,108.236305 665.357910,104.430176 668.556091,106.682938 
	C671.112915,108.483917 668.402710,110.914459 667.668152,112.906731 
	C666.057556,117.274826 664.101196,121.514122 662.374878,125.841431 
	C661.508057,128.014130 660.063843,129.335983 657.790344,128.431580 
	C655.038879,127.337074 656.722534,125.371765 657.448242,123.875946 
	C660.095825,118.418533 655.922791,115.095795 653.968628,110.055534 
	C651.357727,114.226593 652.588623,117.759315 652.323181,121.070358 
	C651.832275,127.194977 647.217163,130.399536 641.531494,128.157135 
	C638.834717,127.093498 636.316406,125.452911 637.822205,121.823486 
	C638.296875,120.679306 638.089355,119.908699 637.285034,119.192734 
	C636.440369,118.440758 635.439880,118.321564 634.577087,119.097519 
	C629.661865,123.517944 624.903870,122.484924 620.089355,118.316360 
	C617.549194,121.929123 614.858154,123.404259 612.006836,118.572258 
	C607.781128,121.952736 603.447266,123.308563 598.728088,119.943512 
	C597.342468,118.955490 596.377380,119.943077 595.213989,120.721214 
	C591.933044,122.915695 590.319641,121.570633 590.026001,117.945633 
	C589.860413,115.901001 590.351013,113.564011 588.050781,112.516495 
	C586.239990,112.920815 586.202698,114.187645 585.918457,115.294083 
	C584.295349,121.612968 581.969849,122.995476 575.603027,121.662125 
	C572.516724,121.015770 573.096619,118.665016 572.903748,116.576759 
	C572.759521,115.015198 573.215454,112.755486 570.781677,112.825775 
	C568.767029,112.883957 568.306213,114.771431 568.281860,116.548859 
	C568.216309,121.325882 567.002930,121.379799 561.974487,120.581390 
	C556.671021,119.739288 550.742126,122.679245 545.327271,118.944489 
	C544.979126,118.704369 543.535217,120.217918 542.516602,120.755531 
	C538.680237,122.780334 534.932312,122.484520 532.068054,119.226151 
	C529.379395,116.167473 529.290344,112.480110 531.658203,109.081039 
	C534.149536,105.504799 537.939697,104.918182 541.404297,106.763542 
	C544.617859,108.475197 547.105347,108.431046 550.161743,106.737846 
	C553.926819,104.652031 557.534851,106.337601 561.015259,108.527443 
	C561.599976,107.371368 562.070068,106.693146 562.303101,105.941460 
	C564.134644,100.032677 564.602417,100.306587 569.413818,104.105034 
	C572.331543,106.408447 576.123962,108.558174 580.717651,106.734184 
	C584.806152,105.110786 589.190002,105.090218 593.242554,107.374001 
	C594.719116,108.206139 596.290894,109.345444 597.870972,108.262146 
	C602.595520,105.023010 607.206116,105.471512 611.344666,108.304504 
	C615.172119,107.195610 611.388489,101.355385 616.155884,101.648987 
	C621.293884,101.965416 616.680664,107.486397 620.508301,109.445808 
	C624.611450,104.925331 629.611694,104.945152 634.850769,108.426605 
	C635.867798,109.102470 637.140442,108.620850 638.133606,107.901009 
	C640.711853,106.032402 643.645569,105.709351 647.163818,105.849556 
M643.848572,111.951759 
	C641.723938,113.124603 641.625549,114.618073 643.359863,116.153656 
	C644.187317,116.886299 645.298401,116.657234 645.919617,115.763412 
	C647.236755,113.868164 646.916138,112.433311 643.848572,111.951759 
M553.567017,111.821381 
	C551.789734,112.939262 551.690125,114.414345 552.982910,115.860519 
	C553.804626,116.779610 554.816956,116.199265 555.481567,115.425201 
	C557.135925,113.498306 555.747498,112.589256 553.567017,111.821381 
M629.686279,112.614716 
	C628.349792,111.079315 627.115540,111.233360 626.400513,113.079407 
	C625.909363,114.347397 626.097961,116.016457 627.640503,116.270569 
	C629.848267,116.634270 630.376770,115.111938 629.686279,112.614716 
z"/>
<path fill="#000000" opacity="1.000000" stroke="none" 
	d="
M885.347595,446.004028 
	C885.284424,452.490326 885.086609,458.479889 885.208801,464.462891 
	C885.278320,467.870331 884.013916,469.410828 880.571960,469.248627 
	C878.248779,469.139130 875.913513,469.197815 873.586914,469.277069 
	C871.985046,469.331604 869.958191,468.972626 869.653076,471.301514 
	C869.387695,473.327332 871.159729,473.531891 872.571777,474.032562 
	C873.117432,474.225983 873.525146,474.808472 874.802307,475.908386 
	C869.942810,477.911865 865.803040,477.854401 861.631653,476.403961 
	C860.255371,475.925415 859.100952,474.843597 857.770691,474.188904 
	C856.375244,473.502167 855.786438,472.503601 856.040222,470.989380 
	C856.273438,469.598389 857.284973,468.964325 858.510254,468.964996 
	C861.287476,468.966492 863.286377,467.434204 864.941833,465.587860 
	C867.950256,462.232513 872.369202,464.675629 876.321167,462.265015 
	C865.195007,461.832672 854.733215,460.701813 844.245117,461.749695 
	C840.068481,462.166962 838.504089,460.854156 838.639038,456.617523 
	C838.866638,449.471252 838.787964,442.311035 838.663330,435.159698 
	C838.607788,431.974335 839.838623,430.677948 843.050659,430.695892 
	C855.859863,430.767426 868.670105,430.734161 881.479492,430.664398 
	C884.221863,430.649475 885.409790,431.774719 885.343567,434.525421 
	C885.255493,438.182953 885.337891,441.844635 885.347595,446.004028 
z"/>
<path fill="#000000" opacity="1.000000" stroke="none" 
	d="
M450.194641,107.610260 
	C456.055328,109.638420 459.547699,105.312767 463.702362,103.221657 
	C465.116486,102.509880 466.050018,100.812370 467.956482,101.624123 
	C469.743500,102.385025 469.360779,104.104263 469.381317,105.540588 
	C469.440796,109.705917 469.304962,113.876297 469.452972,118.037323 
	C469.551300,120.802032 468.572968,122.156403 465.710052,121.852562 
	C461.884308,121.446533 457.676697,122.984100 454.522339,119.260849 
	C453.223724,117.728020 451.916107,119.037849 450.616455,119.870125 
	C444.615936,123.712799 440.428070,122.564606 437.274200,116.295868 
	C436.605865,114.967453 436.219940,113.231758 434.273651,113.525795 
	C432.312897,113.821999 432.341248,115.558975 432.298492,117.061661 
	C432.173553,121.457924 430.748352,123.316330 426.637421,120.020767 
	C425.504486,119.112526 424.541809,119.656471 423.418365,120.107712 
	C416.088440,123.051826 414.522095,122.598549 409.483215,116.251427 
	C406.685089,116.904457 408.100739,120.976952 405.035156,121.617645 
	C402.135315,122.223686 400.982147,119.937302 399.315277,118.627937 
	C393.447662,122.775818 393.447662,122.775818 388.561768,116.981850 
	C387.393860,117.038612 386.967041,118.027382 386.304382,118.744377 
	C382.016479,123.383919 376.604736,123.162750 372.713715,118.207603 
	C368.958923,113.425980 365.751709,113.424568 362.760895,118.391029 
	C361.697144,120.157532 361.044373,122.208908 358.421661,121.444283 
	C355.705078,120.652298 356.476379,118.384552 356.518951,116.450958 
	C356.592224,113.119492 356.804199,109.780785 356.662842,106.457664 
	C356.509064,102.842247 358.373810,101.604866 361.560486,101.900909 
	C365.006683,102.221062 368.655548,102.229263 370.876312,105.672180 
	C371.657135,106.882713 372.660950,107.718254 374.205902,107.135818 
	C382.286865,104.089325 390.644714,107.673325 398.794342,106.094284 
	C400.806824,105.704346 402.003204,107.593735 403.309418,108.282173 
	C409.276611,105.338791 415.309875,105.627289 421.236450,106.482910 
	C423.564484,106.819008 425.602356,107.651459 427.860291,106.291542 
	C428.642059,105.820694 429.855133,105.711243 430.781830,105.892799 
	C437.091644,107.129005 443.676849,104.814796 450.194641,107.610260 
z"/>
<path fill="#000000" opacity="1.000000" stroke="none" 
	d="
M575.217773,331.653198 
	C587.514587,331.636719 599.341431,331.735077 611.162720,331.525299 
	C614.400146,331.467865 615.648499,332.304199 615.579529,335.657471 
	C615.360352,346.311798 615.259705,356.971649 615.345886,367.627502 
	C615.376465,371.413422 614.454590,373.391998 610.222717,372.529327 
	C607.823914,372.040344 605.373413,372.340179 604.212341,374.890961 
	C602.768738,378.062500 600.267151,378.607269 597.228821,378.326630 
	C596.402588,378.250275 595.563965,378.318481 594.731750,378.295135 
	C591.083435,378.192810 587.074280,378.992676 583.884277,377.728485 
	C580.370544,376.335938 582.338135,371.336914 580.284241,368.417175 
	C578.102295,365.315460 579.623352,363.105835 582.252014,360.852234 
	C590.325562,353.930511 590.242493,353.833588 592.183838,345.554138 
	C589.854309,343.277130 586.860107,344.394684 584.154175,344.139618 
	C582.338013,343.968445 580.493103,344.085266 578.661255,344.100525 
	C567.478943,344.193634 567.478943,344.196228 569.024780,332.427277 
	C570.750366,331.075317 572.823975,331.868073 575.217773,331.653198 
z"/>
<path fill="#000000" opacity="1.000000" stroke="none" 
	d="
M573.524292,543.150757 
	C573.965698,543.221680 574.212463,543.313904 574.281189,543.240173 
	C574.452698,543.056152 574.543213,542.796692 574.666199,542.567505 
	C572.151672,541.573914 567.847473,540.828735 570.188354,537.290833 
	C572.559998,533.706421 574.559998,538.826843 576.977600,539.308838 
	C585.304382,526.171570 600.255493,527.531128 606.755005,538.724060 
	C609.269287,538.824341 610.860107,533.832520 613.915710,537.076599 
	C616.012634,539.302856 613.292053,540.508728 612.231873,542.282654 
	C615.585876,544.147278 617.335999,546.355408 613.006348,549.052246 
	C612.930664,551.076538 616.489746,552.939819 613.635315,554.751831 
	C610.411865,556.798157 609.213684,553.262634 607.186157,551.571045 
	C605.294067,555.840698 601.588562,558.722046 602.063904,564.518127 
	C602.371948,568.273804 598.677429,572.502502 596.371643,576.271790 
	C595.059082,578.417480 588.015564,577.662231 587.132202,575.263611 
	C585.398682,570.556641 581.152832,566.568176 582.738159,560.822449 
	C582.891846,560.265442 582.666077,559.393860 582.290771,558.934265 
	C579.510437,555.529480 577.205261,551.811462 574.942505,547.794861 
	C575.490234,550.551758 576.948792,553.207642 573.452332,554.822998 
	C572.314697,555.348633 571.193359,555.657471 570.231140,554.657837 
	C568.380188,552.734924 570.466492,551.360535 571.068726,549.715210 
	C570.799377,547.807190 567.486877,547.344910 568.525635,544.834473 
	C569.430298,542.648010 571.411194,542.970764 573.524292,543.150757 
z"/>
<path fill="#000000" opacity="1.000000" stroke="none" 
	d="
M435.012878,276.593140 
	C443.835114,276.236847 452.212769,277.005737 460.658325,276.511017 
	C465.134430,276.248810 470.055267,276.342468 474.666931,276.393921 
	C483.638092,276.493988 492.709106,278.727814 501.670685,276.288696 
	C504.373840,275.552979 506.833862,277.189362 509.532776,276.983795 
	C524.585205,275.837494 539.627869,277.786743 554.686951,277.230896 
	C560.250610,277.025543 566.039612,277.542389 571.330627,277.090271 
	C576.429626,276.654572 581.183350,277.335876 586.094055,277.475281 
	C588.223755,277.535767 589.786926,278.138123 589.871216,280.446930 
	C589.963196,282.962799 588.399048,284.338989 586.059143,283.799713 
	C581.950562,282.852844 577.840881,284.635590 573.446655,282.703888 
	C571.356873,281.785217 567.184875,284.205566 563.610474,283.744019 
	C555.815247,282.737488 547.865784,283.341064 540.079346,283.178955 
	C529.934387,282.967743 519.601929,283.645569 509.341492,283.716583 
	C494.744720,283.817566 480.140106,284.299896 465.553711,283.966980 
	C449.344238,283.596954 433.152557,284.062042 416.953156,284.103119 
	C414.014618,284.110565 411.102478,284.292206 410.955902,280.071747 
	C410.836029,276.620422 412.226898,274.818451 415.729340,275.798157 
	C421.980316,277.546692 428.278198,276.900574 435.012878,276.593140 
z"/>
<path fill="#000000" opacity="1.000000" stroke="none" 
	d="
M505.823792,476.539856 
	C513.467041,476.628021 520.647888,475.461151 527.929321,475.738983 
	C536.179199,476.053711 544.493164,475.010345 552.720825,475.513245 
	C566.296631,476.342957 579.866638,475.653107 593.429871,476.122375 
	C595.832581,476.205536 597.306824,477.307495 597.011536,479.819977 
	C596.701538,482.457733 594.719604,482.654144 592.533020,482.546265 
	C582.835999,482.067841 573.078125,482.150055 563.422424,482.139191 
	C551.569092,482.125824 539.638184,482.537109 527.765381,482.327057 
	C516.770020,482.132416 505.810089,483.148315 494.839539,482.733276 
	C483.545197,482.305969 472.255798,482.260071 460.968048,482.617065 
	C458.770233,482.686554 457.255646,481.427704 455.491516,480.874054 
	C453.404877,481.419342 453.318024,483.914032 451.982178,484.419586 
	C443.371185,482.692474 435.234070,480.428131 427.142029,484.821594 
	C425.871979,485.511169 424.534729,485.319366 423.334991,484.562836 
	C420.699127,482.900635 417.782806,482.463104 414.743042,482.411926 
	C413.316010,482.387909 411.509277,482.828461 411.147125,480.702332 
	C410.840363,478.901184 410.592621,476.966583 411.935913,475.454132 
	C413.152679,474.084076 414.629425,474.784668 416.084869,475.241333 
	C422.088104,477.124878 428.114166,475.808746 434.169952,475.465027 
	C439.463379,475.164612 444.941986,474.950256 450.078033,475.988068 
	C454.790558,476.940369 459.484955,476.658295 463.822754,476.015778 
	C472.014984,474.802338 480.059143,477.017853 488.266510,475.683044 
	C493.788635,474.784943 499.692444,476.233398 505.823792,476.539856 
z"/>
<path fill="#000000" opacity="1.000000" stroke="none" 
	d="
M298.982635,471.811951 
	C300.522461,467.013306 304.653717,464.729523 307.629211,461.469635 
	C309.834625,459.053406 310.733429,456.999817 309.709503,453.559540 
	C307.288239,445.424591 310.875061,437.315247 318.108551,433.086792 
	C325.021423,429.045715 334.175751,430.293365 340.217285,436.100067 
	C345.768311,441.435333 347.092194,450.320801 343.361023,457.199799 
	C339.231720,464.812836 331.064850,468.695099 322.828888,466.540619 
	C319.381744,465.638855 316.708710,466.048737 314.337982,468.696472 
	C313.009918,470.179810 311.539429,471.534607 310.169586,472.981842 
	C304.623322,478.841370 303.855499,478.790100 298.982635,471.811951 
M322.168457,451.956848 
	C322.276184,447.032928 324.197632,443.507538 331.048370,443.292847 
	C327.030792,439.650177 324.507629,441.073578 322.359131,442.667328 
	C319.922394,444.474854 316.583252,446.124786 317.468536,449.971985 
	C317.860870,451.676941 318.964355,453.979919 322.168457,451.956848 
z"/>
<path fill="#000000" opacity="1.000000" stroke="none" 
	d="
M149.995087,375.991760 
	C154.009125,376.674438 157.605850,377.277740 161.068573,375.322388 
	C163.411911,373.999207 165.085648,376.518066 167.153839,376.543091 
	C176.852814,376.660553 186.512634,377.346283 196.260941,376.098358 
	C201.732529,375.397919 207.572083,374.586273 213.116409,376.345398 
	C217.089722,377.606049 220.934235,375.581299 224.926834,376.305084 
	C226.718323,376.629822 228.476227,376.704437 229.761292,377.837402 
	C231.418442,377.195770 230.914474,375.140259 232.462631,374.996002 
	C239.176697,375.154602 245.785950,377.767029 252.595581,375.775299 
	C256.178528,374.727356 259.542450,374.201477 263.145935,376.201721 
	C266.456604,378.039429 270.234863,376.813995 273.760345,376.410034 
	C282.191803,375.443939 290.620300,376.539337 299.045227,376.177643 
	C305.200470,375.913391 301.477386,380.356201 302.784424,383.425476 
	C298.314209,383.425476 294.276489,382.587860 290.810883,383.638062 
	C286.503418,384.943420 282.818420,384.607788 278.684265,383.390656 
	C275.866150,382.560944 272.682434,382.955902 270.883911,385.334991 
	C268.328918,385.193329 268.622162,382.944611 266.767914,381.901764 
	C265.981659,383.143066 265.105225,384.526733 264.021301,386.237976 
	C259.848724,381.572998 255.010468,383.810211 250.686340,383.249725 
	C244.057175,382.390442 237.191589,385.013000 230.605499,382.033691 
	C230.004410,381.761780 228.871170,382.963196 227.933838,383.084259 
	C224.521637,383.525055 220.944061,384.436493 218.669128,380.138306 
	C217.146484,382.294983 216.115509,383.755249 214.953262,385.401459 
	C206.845673,381.622406 198.337967,383.432281 190.007050,383.315521 
	C175.358871,383.110199 160.705643,383.294373 146.055176,383.207703 
	C140.321228,383.173798 139.660797,381.935242 141.929443,375.780487 
	C144.417572,376.749451 146.990448,375.602142 149.995087,375.991760 
z"/>
<path fill="#000000" opacity="1.000000" stroke="none" 
	d="
M521.532715,300.356110 
	C518.605042,301.425140 516.771362,302.155121 513.664917,300.088257 
	C511.552124,298.682587 506.891296,300.714722 503.228271,300.478363 
	C500.224884,300.284546 496.856689,299.685211 494.784485,302.382233 
	C492.029510,301.193268 493.657928,298.093781 491.058411,297.108521 
	C485.553436,303.358917 478.124176,299.603363 471.556946,299.955505 
	C456.383667,300.769012 441.139648,300.502869 425.931366,300.250031 
	C422.224609,300.188385 418.942017,303.646515 414.955353,301.003815 
	C413.137299,299.798645 410.731689,299.339447 411.093201,296.584442 
	C411.462036,293.773621 413.802216,293.712860 416.040497,293.504303 
	C421.912903,292.957123 427.758453,292.696625 433.674713,292.601196 
	C447.060181,292.385223 460.393494,294.203308 473.697601,293.428894 
	C487.297943,292.637238 500.792389,293.698914 514.331848,293.805176 
	C519.667297,293.847076 525.190491,293.440094 530.632080,292.633850 
	C536.045776,291.831757 541.634155,293.498077 547.255981,292.842712 
	C549.263184,292.608704 549.221436,295.408905 549.204346,297.293549 
	C549.184570,299.474091 548.044861,300.457520 546.088379,300.156219 
	C539.352783,299.119049 532.671326,304.000275 525.868103,300.238403 
	C524.873047,299.688202 523.261230,300.253571 521.532715,300.356110 
z"/>
<path fill="#000000" opacity="1.000000" stroke="none" 
	d="
M559.999878,226.407471 
	C502.907104,226.407822 446.314301,226.407822 389.534912,226.407822 
	C389.548309,222.815475 391.664825,222.349213 393.495728,221.983215 
	C395.267548,221.629013 397.143280,221.740021 398.973358,221.739532 
	C475.127319,221.719391 551.281250,221.696579 627.435242,221.743149 
	C630.730225,221.745163 634.600647,220.635284 637.476624,226.007431 
	C624.189392,226.931717 611.567688,226.234192 598.993408,226.382950 
	C586.163940,226.534729 573.331238,226.410522 559.999878,226.407471 
z"/>
<path fill="#000000" opacity="1.000000" stroke="none" 
	d="
M703.463379,382.676697 
	C696.823792,384.819092 690.365601,383.482117 684.045593,383.127747 
	C680.438171,382.925476 681.662842,379.177734 681.950623,375.837158 
	C688.947144,376.184753 695.770020,376.507599 702.589844,376.884247 
	C703.386292,376.928223 704.410339,377.697052 704.916992,377.407959 
	C711.838806,373.458710 719.217102,376.224396 726.342224,375.986816 
	C741.944031,375.466522 757.532043,377.016388 773.190918,376.187958 
	C780.308105,375.811401 787.625916,375.440338 794.631409,375.807953 
	C800.742310,376.128571 806.920898,375.843384 813.042114,376.380005 
	C815.769775,376.619141 817.030029,377.908539 816.967285,380.466248 
	C816.899597,383.227051 814.936768,383.325684 812.738708,383.402893 
	C806.855103,383.609619 800.751648,381.814484 795.167053,385.203186 
	C794.739807,385.462463 793.790466,385.268372 793.299133,384.951294 
	C788.947144,382.142731 784.653687,382.101013 780.296265,384.936584 
	C779.237610,385.625488 778.522461,384.368805 777.682251,384.207306 
	C771.341309,382.988220 764.958130,382.690704 758.631592,384.318085 
	C757.560791,384.593567 756.748535,385.524994 755.401489,385.138397 
	C746.377258,382.548798 737.087341,383.051056 727.931458,383.536926 
	C719.796692,383.968597 711.797363,383.671295 703.463379,382.676697 
z"/>
<path fill="#000000" opacity="1.000000" stroke="none" 
	d="
M539.002380,616.188416 
	C523.501282,616.414246 508.836060,612.677856 493.874603,612.348572 
	C492.620850,612.320984 491.252106,611.837830 490.233124,610.485779 
	C490.272369,607.739502 491.793488,605.901489 494.528870,605.439758 
	C516.286987,601.766968 538.034058,597.111816 560.057922,603.780518 
	C560.375977,603.876831 560.703064,603.942993 561.021790,604.037292 
	C563.744934,604.842651 566.213623,606.277100 566.232056,609.326660 
	C566.251587,612.551025 563.209229,613.594543 560.780273,614.336121 
	C555.009521,616.098083 548.986267,616.159302 542.991882,616.165222 
	C541.827942,616.166382 540.664062,616.178162 539.002380,616.188416 
z"/>
<path fill="#000000" opacity="1.000000" stroke="none" 
	d="
M412.892212,256.111603 
	C412.324768,254.029633 411.782532,252.345612 411.229950,250.629425 
	C413.500763,249.033417 416.105286,249.120010 418.074280,249.825592 
	C427.158051,253.080704 436.442749,251.373962 445.638794,251.353699 
	C449.256653,251.345734 452.452942,251.259918 453.289093,256.284882 
	C455.733551,254.015732 453.864319,249.665009 458.128387,249.600647 
	C462.516693,249.534393 466.157806,250.932953 469.428101,254.112503 
	C470.774445,251.780182 472.747192,249.633163 475.310364,248.881516 
	C477.843994,248.138535 480.493958,248.890488 482.526489,251.117050 
	C483.014771,251.651993 484.610077,251.782196 485.332520,251.403870 
	C492.525482,247.636978 498.987976,254.409500 506.267334,251.375000 
	C504.523773,259.956116 502.566895,261.596558 496.129791,261.485382 
	C487.532257,261.336914 478.893463,261.846619 470.341553,261.182709 
	C456.877899,260.137543 443.503876,262.459900 429.996857,261.547180 
	C425.247772,261.226288 420.423737,259.041443 415.311462,260.686920 
	C413.385986,261.306671 413.112518,258.319458 412.892212,256.111603 
z"/>
<path fill="#000000" opacity="1.000000" stroke="none" 
	d="
M359.741089,325.931580 
	C279.437500,325.718658 199.596466,325.504272 119.319710,325.288727 
	C120.411621,321.653351 122.644073,321.680756 124.774376,321.671295 
	C131.438019,321.641724 138.101898,321.675781 144.765686,321.672363 
	C200.075485,321.643921 255.385315,321.629700 310.695099,321.571625 
	C327.165100,321.554321 343.634949,321.374786 360.104950,321.366577 
	C362.493469,321.365387 365.219635,321.163422 366.585693,324.426514 
	C364.811493,326.463898 362.358246,325.674286 359.741089,325.931580 
z"/>
<path fill="#000000" opacity="1.000000" stroke="none" 
	d="
M555.792114,165.881744 
	C561.157288,165.072906 566.218018,165.287354 571.223267,164.302765 
	C573.058594,163.941711 576.411560,165.193741 578.058044,167.535736 
	C578.946106,168.799026 579.178589,170.332886 578.508850,171.820984 
	C577.778381,173.444000 576.214722,174.087814 574.772766,173.539978 
	C568.747803,171.250931 562.686768,174.907883 556.687927,173.256729 
	C556.090210,173.092209 555.282166,173.173676 554.727600,173.451721 
	C550.069519,175.787079 545.891846,175.394196 540.953125,173.245987 
	C537.736389,171.846817 533.393433,174.040771 530.106567,175.892014 
	C527.344910,174.427048 529.503357,171.170486 526.826660,169.175049 
	C523.572693,176.734283 516.944336,172.965714 511.685211,173.426407 
	C508.809143,173.678360 506.445892,173.755447 504.631470,176.039658 
	C501.630219,174.189240 504.298218,169.592987 500.445740,168.596085 
	C498.123047,169.564865 499.940765,171.613861 499.255981,172.983154 
	C493.074371,174.940933 486.854584,172.574509 480.632996,173.281555 
	C476.904449,173.705292 476.821350,169.885574 476.784821,167.471527 
	C476.729645,163.824585 480.418854,163.601288 482.314484,164.319183 
	C487.128082,166.142151 492.089813,164.098145 496.318268,164.967209 
	C506.234467,167.005295 515.994324,165.453629 525.779053,165.744171 
	C533.081909,165.961014 540.595459,167.037048 547.860718,164.325867 
	C550.332947,163.403305 552.630432,166.424133 555.792114,165.881744 
z"/>
<path fill="#000000" opacity="1.000000" stroke="none" 
	d="
M750.890991,398.849854 
	C748.377014,398.578705 747.744141,400.944183 745.661804,401.702087 
	C743.613953,399.417572 740.790771,399.505554 737.755127,399.537567 
	C729.013306,399.629761 720.296204,399.488312 711.529480,398.797516 
	C705.705994,398.338654 699.502319,399.940887 693.400757,399.582245 
	C691.411987,399.465332 689.420837,399.384491 687.429871,399.311035 
	C681.208008,399.081451 680.938354,398.712677 682.261169,391.987976 
	C690.276367,394.536804 698.454956,390.488464 706.611694,392.851990 
	C712.918579,394.679504 719.188660,391.732269 725.495911,391.174835 
	C728.062012,390.948029 729.532898,392.994659 731.406921,392.890778 
	C740.768127,392.371704 750.181641,394.785065 759.429138,392.804779 
	C763.740967,391.881348 767.580322,391.815857 771.928406,392.718719 
	C779.287476,394.246796 786.887024,391.715546 794.426941,393.156311 
	C796.597839,393.571136 797.828857,393.967285 798.101196,396.169678 
	C798.350891,398.189117 797.623291,399.451050 795.445862,399.454254 
	C781.340820,399.475006 767.235718,399.482239 753.130737,399.457306 
	C752.492188,399.456177 751.854370,399.102051 750.890991,398.849854 
z"/>
<path fill="#000000" opacity="1.000000" stroke="none" 
	d="
M806.999878,325.359497 
	C757.736633,325.359772 708.973389,325.359772 659.706787,325.359772 
	C660.535339,321.600342 662.899841,321.659943 665.147400,321.645691 
	C676.299377,321.575012 687.451477,321.484680 698.603577,321.491028 
	C765.738831,321.529266 832.874023,321.585236 900.009216,321.673462 
	C902.520386,321.676758 905.462769,320.912231 907.470520,325.359192 
	C873.733032,325.359192 840.616455,325.359192 806.999878,325.359497 
z"/>
<path fill="#000000" opacity="1.000000" stroke="none" 
	d="
M744.881470,351.442413 
	C749.579712,351.899292 754.054138,350.642700 758.432800,351.967651 
	C755.935181,359.791901 754.958496,360.979187 747.910278,360.684204 
	C729.655029,359.920197 711.357178,362.268250 693.142151,359.841797 
	C691.507935,359.624115 690.266602,360.595856 688.808655,360.699432 
	C686.240417,360.881836 683.590088,360.674561 682.320251,358.042603 
	C681.109192,355.532288 681.055481,352.824585 683.131409,350.593903 
	C685.093384,348.485687 687.453247,348.408295 689.989441,349.567657 
	C694.085327,351.440094 698.139343,352.419830 702.090759,349.093109 
	C702.605530,348.659668 703.971924,348.471466 704.404602,348.826599 
	C708.276611,352.004822 712.847107,351.104980 717.242981,351.252472 
	C717.403137,351.257843 717.628967,351.443115 717.709351,351.385193 
	C724.183777,346.720673 731.650696,353.550598 738.231628,349.582794 
	C740.827271,348.017822 742.055786,352.008026 744.881470,351.442413 
z"/>
<path fill="#000000" opacity="1.000000" stroke="none" 
	d="
M204.570038,351.881226 
	C209.305908,351.142517 213.690109,351.143677 218.110199,351.559906 
	C217.306595,358.733032 215.385040,361.021545 209.061188,360.343140 
	C202.826126,359.674225 196.676605,360.899567 190.407562,360.149200 
	C187.198135,359.765076 184.763763,359.606201 182.839340,356.034515 
	C180.077591,362.943176 174.705551,359.827515 170.364029,360.174591 
	C167.239426,360.424438 163.992828,359.575531 162.102036,363.202850 
	C161.316483,364.709900 159.779495,364.746765 158.822357,363.438171 
	C155.576813,359.000977 150.970154,360.240692 146.703110,360.485779 
	C144.573456,360.608063 142.248550,360.971680 141.619019,358.677948 
	C140.865112,355.930939 140.010757,352.779633 142.101974,350.161316 
	C143.674561,348.192413 145.730606,348.149200 147.909348,349.478210 
	C150.862366,351.279510 154.189514,350.716431 157.412903,351.111145 
	C166.836151,352.265076 176.291977,350.362274 185.579330,351.851532 
	C189.656296,352.505280 190.897354,349.154144 193.898224,347.818176 
	C196.295746,351.754639 200.494431,351.235931 204.570038,351.881226 
z"/>
<path fill="#000000" opacity="1.000000" stroke="none" 
	d="
M423.888947,610.808350 
	C416.927551,611.996155 410.662292,614.377563 403.891693,614.460938 
	C395.236664,614.567383 391.245422,612.541626 388.789368,606.050415 
	C387.054443,601.465149 389.000122,599.314270 393.646332,598.684143 
	C408.233521,596.705566 421.357086,603.118835 435.197388,605.324829 
	C435.836853,605.426758 436.458527,605.748535 437.039185,606.059875 
	C437.282898,606.190552 437.398132,606.560852 437.680725,606.986145 
	C434.139008,611.480957 428.687042,609.292480 423.888947,610.808350 
z"/>
<path fill="#000000" opacity="1.000000" stroke="none" 
	d="
M498.361023,120.802429 
	C497.928375,118.525139 497.691437,116.143181 495.549133,115.542015 
	C492.780548,114.765114 492.775146,117.796135 491.613312,119.200417 
	C489.526550,121.722610 480.977936,123.011887 478.054840,121.239075 
	C477.050751,120.630104 476.806549,119.714485 476.790009,118.706116 
	C476.710693,113.875206 476.665375,109.043686 476.627045,104.212219 
	C476.617126,102.964973 476.954346,101.870613 478.338654,101.511353 
	C479.741150,101.147385 481.143860,101.371521 481.923950,102.601364 
	C484.684052,106.952652 488.883789,106.903343 492.896393,105.698090 
	C497.114227,104.431190 498.838074,107.680214 501.168976,109.301453 
	C502.700104,109.375099 503.221466,108.468155 503.825256,107.685509 
	C505.100189,106.032799 506.880554,105.291748 508.655457,106.292503 
	C511.069794,107.653770 509.257874,109.503349 508.634613,111.053406 
	C506.771698,115.686584 504.807220,120.278976 502.874268,124.883888 
	C501.948914,127.088387 500.928253,129.688080 497.945038,128.507599 
	C494.606323,127.186455 497.370911,124.903053 497.665680,123.044289 
	C497.768433,122.396317 498.083954,121.782082 498.361023,120.802429 
z"/>
<path fill="#000000" opacity="1.000000" stroke="none" 
	d="
M457.517761,450.760284 
	C461.997864,451.718658 460.538116,454.717438 460.353638,457.209686 
	C460.148102,459.986603 458.125366,460.115234 456.020721,460.102875 
	C441.993317,460.020386 427.965729,459.962128 413.938599,459.848663 
	C410.568756,459.821411 411.080444,457.160278 411.115295,455.117645 
	C411.157135,452.665710 409.976349,449.478119 413.746155,448.623047 
	C415.326111,448.264679 417.193329,448.068176 418.676392,448.561005 
	C431.133942,452.700806 443.959381,449.789032 456.572205,450.725616 
	C456.737823,450.737885 456.904541,450.734833 457.517761,450.760284 
z"/>
<path fill="#000000" opacity="1.000000" stroke="none" 
	d="
M606.203125,166.182877 
	C613.398010,165.164291 620.347290,166.609818 627.254761,164.397003 
	C629.536804,163.665955 633.207825,167.489456 636.311340,163.826294 
	C639.000854,166.409546 638.342041,169.341370 637.666992,171.877548 
	C636.966064,174.510818 634.254456,173.395203 632.466919,173.412094 
	C616.931152,173.558975 601.393433,173.502609 585.857422,173.632889 
	C582.604553,173.660172 579.895630,173.012634 580.104370,169.258698 
	C580.309204,165.575180 583.307983,165.793564 586.114868,165.868011 
	C592.680481,166.042114 599.250854,166.035828 606.203125,166.182877 
z"/>
<path fill="#000000" opacity="1.000000" stroke="none" 
	d="
M424.574432,165.047455 
	C428.092957,165.417007 431.456970,165.209976 434.411713,167.013260 
	C435.026489,167.388474 436.054657,167.495178 436.747192,167.273087 
	C447.826508,163.720139 459.183441,166.684082 470.374756,165.816696 
	C473.169891,165.600052 474.749298,167.341309 474.553223,170.191101 
	C474.364136,172.939087 472.538239,173.584045 470.009338,173.565201 
	C461.247650,173.499878 452.484528,173.567108 443.722504,173.643143 
	C441.885925,173.659073 439.972076,174.003708 438.446198,172.750015 
	C436.682831,171.301147 435.413757,171.984192 433.577423,172.871475 
	C430.723297,174.250565 427.220520,174.538147 424.726685,172.330231 
	C422.717102,170.551071 421.904633,167.761871 424.574432,165.047455 
z"/>
<path fill="#000000" opacity="1.000000" stroke="none" 
	d="
M867.801025,511.633362 
	C864.624329,511.163513 861.782959,510.898010 859.096924,510.105652 
	C852.769958,508.239227 852.239136,507.601501 848.971497,500.018005 
	C860.630188,498.168945 871.974976,498.531372 883.426514,499.799377 
	C882.404785,507.375885 879.410950,509.577606 867.801025,511.633362 
z"/>
<path fill="#000000" opacity="1.000000" stroke="none" 
	d="
M159.090805,399.625031 
	C152.936996,400.277191 147.238342,398.934692 141.287918,399.090973 
	C140.289978,395.358276 140.672363,393.251709 145.193573,393.139221 
	C151.035614,392.993835 156.825378,393.346924 162.766724,391.703918 
	C165.312332,390.999969 169.794724,390.896881 173.339493,392.557129 
	C175.264923,393.458893 177.933228,394.261017 180.110123,392.957733 
	C183.552338,390.897003 186.799469,392.704681 190.125397,393.012177 
	C192.395233,393.221954 193.241653,394.649506 193.187241,396.780579 
	C193.119690,399.426147 191.317078,399.440460 189.344666,399.445068 
	C179.381119,399.468384 169.417694,399.553223 159.090805,399.625031 
z"/>
<path fill="#000000" opacity="1.000000" stroke="none" 
	d="
M627.865967,157.563950 
	C625.182434,156.841064 624.553528,155.314072 625.018677,151.895920 
	C625.325012,149.645157 626.358643,147.742935 628.728760,148.073654 
	C636.576660,149.168640 644.425659,145.771652 652.308594,148.352371 
	C654.165283,148.960205 656.577942,148.247482 658.643860,147.758316 
	C662.681641,146.802292 664.417969,147.834305 663.296692,152.213211 
	C663.072266,153.089722 663.498840,154.132965 663.666077,155.411469 
	C658.649536,155.913177 653.487610,154.473419 649.040771,156.397888 
	C645.543518,157.911423 642.965454,157.615891 639.745117,156.101715 
	C635.807739,154.250366 631.770264,154.867996 627.865967,157.563950 
z"/>
<path fill="#000000" opacity="1.000000" stroke="none" 
	d="
M396.554260,166.011276 
	C403.567688,163.742355 410.262909,165.442398 416.927032,165.626007 
	C420.002899,165.710754 422.108551,167.150497 421.731079,170.562195 
	C421.367950,173.844131 418.886902,173.513107 416.450104,173.431610 
	C411.490753,173.265701 406.523956,173.244141 401.561188,173.283401 
	C397.169922,173.318161 392.604950,172.561874 388.944672,176.064270 
	C385.488892,168.022964 387.414032,165.552170 396.554260,166.011276 
z"/>
<path fill="#000000" opacity="1.000000" stroke="none" 
	d="
M500.959900,72.798256 
	C500.810242,77.178925 501.846771,81.312302 499.824280,85.564812 
	C495.417633,82.143654 499.927551,76.336296 495.636444,73.280518 
	C491.831818,76.359047 494.756714,81.351395 492.000610,85.331703 
	C489.940582,82.194534 490.933960,79.321129 490.594574,76.699539 
	C490.379181,75.035614 490.438995,73.057861 488.191925,72.994949 
	C485.827454,72.928757 485.378937,74.774399 485.154694,76.761536 
	C484.854279,79.423622 485.939087,82.354683 484.078613,84.724686 
	C482.126221,84.530640 481.823029,83.145378 482.042236,82.147652 
	C483.106628,77.304100 478.394073,72.269211 482.670074,67.525436 
	C484.587402,65.398369 486.319946,63.454037 489.282227,65.773476 
	C490.376282,66.630089 491.400085,66.440926 492.511017,65.839226 
	C493.236572,65.446266 494.002289,65.006996 494.795898,64.883698 
	C496.865234,64.562187 499.553558,63.543003 500.436432,66.274399 
	C501.423218,69.327164 497.807922,68.284103 496.333862,69.658043 
	C497.983063,70.654465 500.841949,69.434143 500.959900,72.798256 
z"/>
<path fill="#000000" opacity="1.000000" stroke="none" 
	d="
M837.739929,383.058777 
	C835.132385,382.954681 833.503662,384.808319 831.466309,385.225464 
	C828.426758,378.793854 829.705200,377.281281 836.171082,376.656738 
	C841.601868,376.132202 846.987488,378.183716 852.664734,375.736450 
	C854.766296,374.830597 859.358826,375.040436 862.816833,376.394379 
	C864.964111,377.235107 866.510376,377.838776 866.289734,380.320496 
	C866.059937,382.906433 864.368530,383.405975 862.041016,383.307037 
	C854.539124,382.988037 847.031311,382.804901 839.524841,382.603851 
	C839.052490,382.591217 838.572266,382.873718 837.739929,383.058777 
z"/>
<path fill="#000000" opacity="1.000000" stroke="none" 
	d="
M428.339111,499.148804 
	C424.295715,499.149078 420.726196,498.532257 417.240906,500.579987 
	C415.209564,501.773499 413.659637,499.457092 412.208191,498.235168 
	C411.168365,497.359711 410.706940,496.045288 411.344269,494.608459 
	C412.222443,492.628693 414.039062,491.758423 415.841553,492.198395 
	C421.259155,493.520844 426.267426,492.004272 431.444458,490.842072 
	C435.485535,489.934906 438.722717,493.748962 443.008911,493.229797 
	C442.971436,496.412598 441.738495,498.686646 440.124786,501.314178 
	C436.613098,498.835968 432.694427,498.968109 428.339111,499.148804 
z"/>
<path fill="#000000" opacity="1.000000" stroke="none" 
	d="
M680.219849,155.728500 
	C677.204712,155.804642 674.564270,155.722916 671.932312,155.837555 
	C670.051453,155.919464 668.167175,156.126740 667.036987,154.242035 
	C666.106812,152.690842 666.079041,150.918900 667.260315,149.554443 
	C668.697449,147.894348 671.096313,146.307602 672.855286,146.988647 
	C677.980530,148.972961 683.172058,146.934555 688.298096,147.978745 
	C691.201782,148.570251 692.371033,149.471252 692.282715,152.385178 
	C692.192566,155.359528 690.595032,156.001114 688.028259,155.830170 
	C685.558655,155.665710 683.075439,155.704910 680.219849,155.728500 
z"/>
<path fill="#000000" opacity="1.000000" stroke="none" 
	d="
M416.981628,85.542526 
	C416.154694,85.318253 415.535767,85.225311 415.293945,84.873322 
	C413.057007,81.616913 413.484009,69.140579 416.220825,65.042442 
	C417.812927,68.884735 420.887390,69.753532 424.538696,70.422806 
	C429.095398,71.258034 430.234528,75.199570 429.807770,79.296532 
	C429.363159,83.564941 426.742889,85.723679 422.329926,85.533447 
	C420.678162,85.462242 419.019867,85.542503 416.981628,85.542526 
M420.365417,82.189346 
	C423.161285,83.448853 425.367554,82.648392 426.470795,79.899063 
	C427.311035,77.805061 427.017120,75.563225 425.072571,74.009193 
	C423.394012,72.667747 421.581116,72.955284 420.069244,74.292343 
	C417.696472,76.390823 417.534027,78.810829 419.452545,81.348152 
	C419.552521,81.480339 419.669098,81.599968 420.365417,82.189346 
z"/>
<path fill="#000000" opacity="1.000000" stroke="none" 
	d="
M451.387238,78.644638 
	C450.528839,84.252228 448.257294,85.968140 442.871582,85.419289 
	C439.001312,85.024872 436.473267,81.641342 436.764526,77.245758 
	C437.044922,73.015007 440.554749,69.696999 444.572876,69.864227 
	C449.023712,70.049461 451.337494,72.874405 451.387238,78.644638 
M443.829681,82.744484 
	C445.260010,82.680832 446.917847,82.965500 446.988037,80.538712 
	C445.065796,79.800888 443.216736,78.749825 441.049042,80.096931 
	C441.142975,81.668327 442.024414,82.275330 443.829681,82.744484 
z"/>
<path fill="#000000" opacity="1.000000" stroke="none" 
	d="
M370.635803,80.992355 
	C369.315430,76.975914 369.500763,73.708519 373.057312,71.399384 
	C375.988434,69.496292 378.996796,69.336311 381.910736,71.368256 
	C385.054504,73.560440 385.549103,76.712318 384.832306,80.227547 
	C384.227325,83.194427 382.348938,84.869415 379.437561,85.302788 
	C375.744507,85.852493 372.408661,85.418030 370.635803,80.992355 
M376.872681,82.787804 
	C378.745850,82.834602 380.384827,82.529465 380.880615,80.353775 
	C379.395172,78.779495 377.709015,79.409996 376.152466,79.462364 
	C375.329926,79.490036 374.424805,79.828606 374.359009,80.769592 
	C374.276184,81.954933 375.277618,82.359085 376.872681,82.787804 
z"/>
<path fill="#000000" opacity="1.000000" stroke="none" 
	d="
M524.974243,76.403458 
	C525.826050,73.563614 527.057129,71.488777 529.568604,70.441383 
	C533.287170,68.890602 538.118652,70.849907 539.533081,74.496147 
	C540.973145,78.208504 538.797607,83.962250 535.547546,85.036621 
	C530.531738,86.694702 526.634644,84.904602 525.291443,80.227119 
	C524.978638,79.137878 525.026917,77.944962 524.974243,76.403458 
M535.248108,79.522659 
	C533.283752,79.552330 531.078735,78.461792 529.464355,80.603905 
	C532.708008,83.860748 534.091980,83.667877 535.248108,79.522659 
z"/>
<path fill="#000000" opacity="1.000000" stroke="none" 
	d="
M589.079346,75.046814 
	C589.089966,76.355370 589.094055,77.186028 589.086670,78.016579 
	C589.022278,85.257164 589.021667,85.257156 581.467163,85.371002 
	C576.151978,85.451103 573.415833,82.920784 573.298950,77.652969 
	C573.208618,73.582985 575.364197,70.660110 579.216919,70.229828 
	C582.766113,69.833427 585.508179,69.054352 586.878418,65.001732 
	C590.199280,68.064888 588.483276,71.578720 589.079346,75.046814 
M583.520020,73.820473 
	C582.490723,73.183678 581.352539,72.931114 580.223083,73.330666 
	C577.322632,74.356728 576.064819,76.559036 576.678040,79.483131 
	C577.176208,81.858673 578.974548,83.122383 581.444702,82.686600 
	C584.329041,82.177742 585.510803,80.031052 585.443542,77.330879 
	C585.417969,76.305016 584.555603,75.300018 583.520020,73.820473 
z"/>
<path fill="#000000" opacity="1.000000" stroke="none" 
	d="
M471.199585,69.923645 
	C478.166351,70.985466 479.757385,72.934120 479.066528,79.014702 
	C478.536774,83.677536 476.278137,85.479660 471.420410,85.404449 
	C467.300354,85.340660 465.376617,82.822861 464.820984,79.286362 
	C464.087616,74.618324 465.808502,71.154846 471.199585,69.923645 
M471.858368,82.794662 
	C473.520142,82.724762 475.228668,82.720863 475.359772,79.882370 
	C473.232086,79.334015 471.186615,78.747894 469.153015,80.118874 
	C469.011505,81.875069 470.048157,82.327133 471.858368,82.794662 
z"/>
<path fill="#000000" opacity="1.000000" stroke="none" 
	d="
M665.051147,84.927231 
	C663.814697,87.525330 663.780823,90.470985 659.553650,92.410652 
	C661.832581,86.462074 661.694153,81.604301 658.780518,77.141090 
	C657.757446,75.573929 657.542175,72.904846 654.824890,73.447670 
	C652.060059,73.999985 651.485840,76.278893 651.392273,78.799652 
	C651.317993,80.802368 652.106445,83.019966 649.811707,85.671356 
	C647.739075,80.349213 649.253052,75.705742 648.651733,71.581726 
	C657.460205,66.864136 660.590515,72.483932 662.930420,78.986214 
	C666.556335,76.873840 665.358826,71.940170 669.910706,70.315514 
	C669.743408,75.949860 666.382324,79.937599 665.051147,84.927231 
z"/>
<path fill="#000000" opacity="1.000000" stroke="none" 
	d="
M526.463440,101.910034 
	C529.714600,102.690598 531.594177,104.408867 528.465881,106.453278 
	C525.525085,108.375130 525.191467,110.695412 525.179077,113.568245 
	C525.171997,115.222267 525.137268,116.877907 525.050171,118.529396 
	C524.949524,120.437706 524.128052,121.702103 521.986877,121.561882 
	C519.981567,121.430557 519.708679,120.004944 519.669250,118.402435 
	C519.553955,113.720787 520.524963,108.915459 515.406067,105.565117 
	C513.701721,104.449661 515.350525,102.137993 517.600220,101.970390 
	C520.397644,101.761978 523.219910,101.887390 526.463440,101.910034 
z"/>
<path fill="#000000" opacity="1.000000" stroke="none" 
	d="
M598.946045,85.512772 
	C594.243347,85.504158 591.672180,83.383125 591.155945,79.075531 
	C590.668701,75.009552 592.057739,71.800461 596.123047,70.360046 
	C599.710571,69.088951 602.697693,70.350639 604.880066,73.303284 
	C608.397217,78.061790 605.566711,84.178543 598.946045,85.512772 
M600.578308,75.615097 
	C601.717896,74.064133 600.624329,73.471779 599.395081,73.275536 
	C597.713257,73.007050 596.040649,73.094810 595.768066,75.410759 
	C597.117920,76.761719 598.612915,75.910873 600.578308,75.615097 
M596.152283,80.714058 
	C598.440552,83.745895 599.275085,83.711838 601.434753,80.462074 
	C599.853760,79.564507 598.253662,79.964127 596.152283,80.714058 
z"/>
<path fill="#000000" opacity="1.000000" stroke="none" 
	d="
M351.387756,154.512985 
	C346.406250,157.706360 341.317688,154.864822 336.351135,155.526031 
	C334.232391,155.808090 332.972412,153.073639 333.136932,150.711823 
	C333.291077,148.499176 334.809448,146.389557 336.859375,146.916000 
	C342.071838,148.254593 347.422028,148.043579 352.544312,148.437210 
	C353.293793,150.930161 351.887543,152.427872 351.387756,154.512985 
z"/>
<path fill="#000000" opacity="1.000000" stroke="none" 
	d="
M397.652069,74.028946 
	C401.059509,68.248619 406.266296,70.343277 410.872192,70.300262 
	C411.986664,70.289841 412.524048,71.390976 412.688141,72.398552 
	C412.900635,73.703270 413.092834,75.052284 412.991638,76.358810 
	C412.759430,79.356056 414.615479,83.645592 411.032806,84.880081 
	C407.696289,86.029747 403.296967,86.701050 399.976807,84.294624 
	C396.686096,81.909546 396.251099,78.215736 397.652069,74.028946 
M404.536804,82.729614 
	C405.955658,82.750084 407.138977,82.202560 407.913727,81.037529 
	C409.335663,78.899254 409.376038,76.685646 407.734131,74.660988 
	C406.460510,73.090485 404.690002,72.601936 402.870667,73.544083 
	C400.712250,74.661819 400.135193,76.730614 400.351929,78.998131 
	C400.547455,81.043571 401.822784,82.211906 404.536804,82.729614 
z"/>
<path fill="#000000" opacity="1.000000" stroke="none" 
	d="
M356.664276,82.445023 
	C356.612335,78.369392 356.542542,74.725945 356.580200,71.083611 
	C356.599579,69.207298 355.742065,66.749130 358.396942,66.032211 
	C361.397156,65.222061 364.427704,65.855240 366.867645,67.748177 
	C368.807343,69.253052 370.140533,72.359734 368.637146,73.880440 
	C364.988464,77.571182 366.105804,80.955849 368.664917,84.895233 
	C364.092468,85.028107 364.110779,80.006943 360.986206,79.641754 
	C358.985962,80.462532 359.782227,82.376556 359.053070,83.546120 
	C357.730194,85.667923 357.095703,84.478561 356.664276,82.445023 
M363.164093,74.744301 
	C365.505524,73.961426 366.433777,72.399635 364.911163,70.326469 
	C363.754547,68.751656 361.827057,68.825272 360.796051,70.447884 
	C359.639465,72.268181 359.540497,74.250778 363.164093,74.744301 
z"/>
<path fill="#000000" opacity="1.000000" stroke="none" 
	d="
M646.270447,76.309448 
	C646.097717,80.421539 646.124268,84.232849 641.339539,85.273872 
	C636.622864,86.300095 633.093384,84.424622 631.953674,80.248497 
	C630.678162,75.575188 632.628113,71.672386 636.903503,70.341362 
	C641.261475,68.984612 644.187622,70.722916 646.270447,76.309448 
M635.659851,80.440033 
	C637.538879,84.216904 639.767456,83.304649 642.603271,80.994522 
	C640.362854,78.743774 638.204956,79.377426 635.659851,80.440033 
M637.515320,73.461456 
	C636.739319,74.015892 635.681213,74.367706 635.970520,75.961502 
	C638.046326,75.920418 640.257019,76.742546 642.114685,74.863770 
	C641.121521,72.900879 639.659302,73.002197 637.515320,73.461456 
z"/>
<path fill="#000000" opacity="1.000000" stroke="none" 
	d="
M555.870605,79.454819 
	C555.769104,81.708900 556.302795,83.771233 554.475220,85.493217 
	C551.469055,83.830513 552.838318,81.264870 552.646423,79.201187 
	C552.397888,76.528145 552.564514,73.332100 548.854614,73.363831 
	C545.627258,73.391457 545.363159,76.272621 545.045471,78.842857 
	C544.796448,80.857841 545.680542,83.214378 542.882935,85.319016 
	C541.358582,80.598785 540.536926,75.948196 542.219910,71.834984 
	C543.418884,68.904724 547.495605,69.759193 550.328491,69.987396 
	C552.899109,70.194481 555.025269,71.746758 555.518250,74.608978 
	C555.770691,76.074318 555.753296,77.586136 555.870605,79.454819 
z"/>
<path fill="#000000" opacity="1.000000" stroke="none" 
	d="
M516.275757,83.299652 
	C511.598755,86.438995 507.299988,86.479004 504.867371,83.351051 
	C502.269897,80.011101 501.963593,76.241737 504.556061,72.758217 
	C506.966431,69.519424 510.336578,69.031631 513.916931,70.690155 
	C516.087158,71.695450 517.688049,73.236870 517.199646,76.574722 
	C513.588623,75.852486 510.608429,69.192871 506.879181,75.290710 
	C505.540527,77.479645 505.663574,79.975777 507.719513,81.642738 
	C511.040680,84.335533 513.489441,81.726593 515.573486,79.545929 
	C517.808044,80.582176 517.070007,81.805283 516.275757,83.299652 
z"/>
<path fill="#000000" opacity="1.000000" stroke="none" 
	d="
M389.319763,80.357315 
	C389.356720,82.200813 389.912598,83.791351 388.223083,84.819763 
	C386.023193,84.850258 386.015106,83.160767 385.973846,81.719948 
	C385.883270,78.557457 385.938934,75.390442 385.952850,72.225349 
	C385.986145,64.658211 386.403381,64.364113 394.642639,66.243217 
	C394.765778,69.485764 390.071960,68.902931 390.010590,72.020477 
	C389.958435,74.669304 389.548553,77.311089 389.319763,80.357315 
z"/>
<path fill="#000000" opacity="1.000000" stroke="none" 
	d="
M620.079224,155.523651 
	C616.626587,155.473358 612.247986,157.300034 611.500305,152.711121 
	C610.767212,148.212219 615.105225,148.104065 618.315186,147.464203 
	C619.798401,147.168564 621.733643,145.279251 622.581177,147.489639 
	C623.679504,150.353882 622.510986,153.186310 620.079224,155.523651 
z"/>
<path fill="#000000" opacity="1.000000" stroke="none" 
	d="
M628.022156,79.914841 
	C626.964478,81.959236 626.622253,84.039658 624.096558,85.528267 
	C620.887207,80.927139 618.741882,76.141502 617.185669,69.909889 
	C622.399292,71.944733 621.562378,76.758049 624.186768,79.417244 
	C627.043152,77.068398 626.584473,72.399414 630.323669,70.149300 
	C631.982788,74.187691 628.826782,76.587151 628.022156,79.914841 
z"/>
<path fill="#000000" opacity="1.000000" stroke="none" 
	d="
M556.831543,72.783585 
	C556.247009,70.118355 558.078003,68.932045 559.454773,66.938995 
	C561.248474,68.394920 562.948059,69.774391 564.664917,71.167938 
	C560.060547,76.563431 560.034729,78.693504 564.302002,84.050079 
	C560.590698,85.870819 559.450256,85.416374 558.363708,81.865883 
	C557.488098,79.004593 558.621338,75.844551 556.831543,72.783585 
z"/>
<path fill="#000000" opacity="1.000000" stroke="none" 
	d="
M828.152649,382.057251 
	C825.758057,384.465485 823.145691,383.520050 820.835083,383.064117 
	C818.566162,382.616425 817.908752,380.513794 818.218018,378.349976 
	C818.589355,375.751984 820.219360,376.013397 822.285828,376.464569 
	C825.407104,377.146118 830.124023,375.626434 828.152649,382.057251 
z"/>
<path fill="#000000" opacity="1.000000" stroke="none" 
	d="
M607.138428,69.545105 
	C607.306458,67.819138 607.216736,66.422516 608.610413,65.639717 
	C610.985718,68.653641 611.086731,81.143333 608.152161,86.116920 
	C606.186279,80.224838 607.056030,75.056801 607.138428,69.545105 
z"/>
<path fill="#000000" opacity="1.000000" stroke="none" 
	d="
M433.983826,84.769150 
	C432.464233,84.442970 432.244202,83.517609 432.243866,82.472374 
	C432.242096,76.821770 432.243042,71.171165 432.243042,64.310043 
	C436.429108,68.347801 436.910828,79.618919 433.983826,84.769150 
z"/>
<path fill="#000000" opacity="1.000000" stroke="none" 
	d="
M521.917908,84.925056 
	C518.329956,82.196983 518.108704,74.322472 521.706360,69.885040 
	C523.786316,75.096596 523.730347,79.870132 521.917908,84.925056 
z"/>
<path fill="#000000" opacity="1.000000" stroke="none" 
	d="
M392.549561,84.967186 
	C390.813782,80.003265 391.546021,75.272293 392.201630,70.127510 
	C396.469940,73.566452 396.544434,82.062592 392.549561,84.967186 
z"/>
<path fill="#000000" opacity="1.000000" stroke="none" 
	d="
M616.221436,74.444077 
	C615.674683,78.162102 617.259766,81.805763 614.073914,85.644951 
	C612.329529,80.157333 612.696228,75.530594 613.660461,70.643761 
	C616.310913,70.988808 616.141418,72.585381 616.221436,74.444077 
z"/>
<path fill="#000000" opacity="1.000000" stroke="none" 
	d="
M610.441284,598.967163 
	C611.884399,599.183289 613.206421,598.744873 613.927307,600.721252 
	C609.942322,602.612488 606.092529,602.616577 601.507874,600.810181 
	C604.353333,597.922485 607.384888,599.323853 610.441284,598.967163 
z"/>
</svg>