<svg version="1.1" id="Layer_1" xmlns="http://www.w3.org/2000/svg" xmlns:xlink="http://www.w3.org/1999/xlink" x="0px" y="0px"
	 width="100" viewBox="0 0 200 200" enable-background="new 0 0 200 200" xml:space="preserve">
<path fill="#F05134" opacity="1.000000" stroke="none" 
	d="
M1.000001,104.000000 
	C1.000000,101.958336 1.000000,99.916664 1.271616,97.220886 
	C6.762174,90.648140 11.779064,84.535072 17.245342,78.854439 
	C26.453947,69.284721 35.924023,59.965645 45.329739,50.586895 
	C51.749126,44.185909 58.246124,37.862759 64.854782,31.360815 
	C72.091248,38.583851 78.893173,45.189846 85.415359,52.061378 
	C86.518784,53.223900 86.964142,55.589756 86.775978,57.296276 
	C86.074341,63.659851 88.028587,68.620552 93.055168,72.687683 
	C94.562653,73.907425 95.912834,76.324501 95.939941,78.213074 
	C96.167130,94.040932 96.151085,109.874496 95.950890,125.703079 
	C95.929291,127.411575 94.696526,129.684296 93.301094,130.698517 
	C86.134026,135.907715 84.398697,146.243301 89.825401,153.225876 
	C94.940628,159.807663 105.936600,160.504410 112.138329,154.639709 
	C118.583786,148.544525 118.196373,138.196167 111.642288,131.898010 
	C110.102463,130.418304 108.861328,127.816475 108.828438,125.709869 
	C108.591728,110.549019 108.693275,95.382744 108.717743,80.218239 
	C108.719711,78.997040 108.947838,77.776192 109.209000,75.184280 
	C114.759407,80.950958 119.354454,85.947517 124.204865,90.682495 
	C127.199890,93.606247 130.558151,96.104927 128.026199,101.019783 
	C127.694153,101.664314 127.930092,102.674576 128.079575,103.482780 
	C129.678497,112.127899 137.196045,117.922745 145.249069,116.754517 
	C153.830429,115.509651 159.501083,108.510231 158.543213,100.345184 
	C157.472626,91.219139 151.125488,86.262749 141.437500,86.817612 
	C139.903854,86.905449 137.803879,86.891281 136.863876,85.988792 
	C130.155640,79.548264 123.634392,72.909187 117.197525,66.195328 
	C116.500679,65.468506 116.432693,63.829628 116.561768,62.668129 
	C117.792519,51.593800 111.036118,44.464466 99.799438,44.897388 
	C98.113190,44.962349 95.844971,44.760376 94.780411,43.722977 
	C87.702461,36.825615 80.878906,29.667192 73.488968,22.098270 
	C81.268608,14.806872 88.634300,7.903435 96.000000,0.999999 
	C99.030594,1.000000 102.061188,1.000000 105.776398,1.244427 
	C115.679649,10.295290 125.003860,18.994493 134.087433,27.938101 
	C143.306473,37.015110 152.230362,46.391109 161.389603,55.529839 
	C170.673264,64.792717 180.163300,73.849411 189.408020,83.150398 
	C193.469864,87.236954 197.147766,91.705109 201.000000,96.000000 
	C201.000000,99.030594 201.000000,102.061188 200.713226,105.724258 
	C191.613800,115.552284 182.900604,124.845879 173.960876,133.916183 
	C164.769608,143.241684 155.304916,152.297058 146.056473,161.567001 
	C136.920242,170.724487 128.020569,180.120544 118.785316,189.175507 
	C114.472099,193.404510 109.612144,197.075882 105.000000,201.000000 
	C102.629440,201.000000 100.258888,201.000000 97.328438,200.675995 
	C95.489685,199.589279 93.994568,199.045425 92.966179,198.029221 
	C84.712318,189.873245 76.546730,181.627960 68.353790,173.410324 
	C58.878078,163.906052 49.426296,154.377777 39.919044,144.905182 
	C30.992870,136.011520 21.878492,127.302498 13.103872,118.262825 
	C8.770487,113.798546 5.016273,108.772087 1.000001,104.000000 
z"/>
<path fill="#FFFDFD" opacity="1.000000" stroke="none" 
	d="
M95.531342,0.999999 
	C88.634300,7.903435 81.268608,14.806872 73.488968,22.098270 
	C80.878906,29.667192 87.702461,36.825615 94.780411,43.722977 
	C95.844971,44.760376 98.113190,44.962349 99.799438,44.897388 
	C111.036118,44.464466 117.792519,51.593800 116.561768,62.668129 
	C116.432693,63.829628 116.500679,65.468506 117.197525,66.195328 
	C123.634392,72.909187 130.155640,79.548264 136.863876,85.988792 
	C137.803879,86.891281 139.903854,86.905449 141.437500,86.817612 
	C151.125488,86.262749 157.472626,91.219139 158.543213,100.345184 
	C159.501083,108.510231 153.830429,115.509651 145.249069,116.754517 
	C137.196045,117.922745 129.678497,112.127899 128.079575,103.482780 
	C127.930092,102.674576 127.694153,101.664314 128.026199,101.019783 
	C130.558151,96.104927 127.199890,93.606247 124.204865,90.682495 
	C119.354454,85.947517 114.759407,80.950958 109.209000,75.184280 
	C108.947838,77.776192 108.719711,78.997040 108.717743,80.218239 
	C108.693275,95.382744 108.591728,110.549019 108.828438,125.709869 
	C108.861328,127.816475 110.102463,130.418304 111.642288,131.898010 
	C118.196373,138.196167 118.583786,148.544525 112.138329,154.639709 
	C105.936600,160.504410 94.940628,159.807663 89.825401,153.225876 
	C84.398697,146.243301 86.134026,135.907715 93.301094,130.698517 
	C94.696526,129.684296 95.929291,127.411575 95.950890,125.703079 
	C96.151085,109.874496 96.167130,94.040932 95.939941,78.213074 
	C95.912834,76.324501 94.562653,73.907425 93.055168,72.687683 
	C88.028587,68.620552 86.074341,63.659851 86.775978,57.296276 
	C86.964142,55.589756 86.518784,53.223900 85.415359,52.061378 
	C78.893173,45.189846 72.091248,38.583851 64.854782,31.360815 
	C58.246124,37.862759 51.749126,44.185909 45.329739,50.586895 
	C35.924023,59.965645 26.453947,69.284721 17.245342,78.854439 
	C11.779064,84.535072 6.762174,90.648140 1.271616,96.783386 
	C1.000000,65.073456 1.000000,33.146912 1.000000,1.000000 
	C32.353882,1.000000 63.708282,1.000000 95.531342,0.999999 
z"/>
<path fill="#FFFEFE" opacity="1.000000" stroke="none" 
	d="
M1.000001,104.468658 
	C5.016273,108.772087 8.770487,113.798546 13.103872,118.262825 
	C21.878492,127.302498 30.992870,136.011520 39.919044,144.905182 
	C49.426296,154.377777 58.878078,163.906052 68.353790,173.410324 
	C76.546730,181.627960 84.712318,189.873245 92.966179,198.029221 
	C93.994568,199.045425 95.489685,199.589279 96.884277,200.675995 
	C65.072693,201.000000 33.145382,201.000000 1.000000,201.000000 
	C1.000000,168.979431 1.000000,136.958374 1.000001,104.468658 
z"/>
<path fill="#FFFFFE" opacity="1.000000" stroke="none" 
	d="
M105.468658,201.000000 
	C109.612144,197.075882 114.472099,193.404510 118.785316,189.175507 
	C128.020569,180.120544 136.920242,170.724487 146.056473,161.567001 
	C155.304916,152.297058 164.769608,143.241684 173.960876,133.916183 
	C182.900604,124.845879 191.613800,115.552284 200.713226,106.178368 
	C201.000000,137.593979 201.000000,169.187943 201.000000,201.000000 
	C169.312775,201.000000 137.625046,201.000000 105.468658,201.000000 
z"/>
<path fill="#FFFEFE" opacity="1.000000" stroke="none" 
	d="
M201.000000,95.531342 
	C197.147766,91.705109 193.469864,87.236954 189.408020,83.150398 
	C180.163300,73.849411 170.673264,64.792717 161.389603,55.529839 
	C152.230362,46.391109 143.306473,37.015110 134.087433,27.938101 
	C125.003860,18.994493 115.679649,10.295290 106.230515,1.244427 
	C137.593582,1.000000 169.187180,1.000000 201.000000,1.000000 
	C201.000000,32.353886 201.000000,63.708286 201.000000,95.531342 
z"/>
</svg>