<svg version="1.1" id="Layer_1" xmlns="http://www.w3.org/2000/svg" xmlns:xlink="http://www.w3.org/1999/xlink" x="0px" y="0px"
	 width="100" viewBox="0 0 224 224" enable-background="new 0 0 224 224" xml:space="preserve">
<path fill="#FEFEFE" opacity="1.000000" stroke="none" 
	d="
M123.000000,225.000000 
	C82.000000,225.000000 41.500004,225.000000 1.000005,225.000000 
	C1.000004,150.333344 1.000004,75.666679 1.000002,1.000015 
	C75.666656,1.000010 150.333313,1.000010 224.999969,1.000005 
	C224.999985,75.666649 224.999985,150.333298 225.000000,224.999969 
	C191.166672,225.000000 157.333328,225.000000 123.000000,225.000000 
M52.218426,152.082108 
	C52.847416,151.974945 53.476410,151.867783 54.064915,151.767517 
	C53.629917,150.576859 53.247749,149.530792 53.563457,148.212784 
	C58.435017,147.983841 61.981270,150.446640 64.369942,154.297516 
	C69.291183,162.231277 75.361961,167.624405 85.544121,166.177780 
	C89.680305,165.590164 92.572128,164.247635 93.263580,159.588608 
	C93.601120,157.314270 94.923882,155.186142 95.752113,153.113434 
	C92.868782,152.477737 89.934341,151.830765 86.409767,150.920151 
	C83.789360,149.936661 81.092819,149.116913 78.562202,147.940292 
	C69.421310,143.690170 63.365318,136.577942 60.466026,127.022598 
	C57.582062,117.517769 57.862614,107.827194 59.992401,98.176086 
	C60.152626,97.450012 60.418751,96.702110 60.817493,96.081123 
	C63.627747,91.704582 67.727592,88.268120 66.165092,81.713058 
	C65.112648,77.297783 66.582497,72.251930 67.086929,67.505486 
	C67.409454,64.470650 69.566513,63.485451 72.130836,64.430901 
	C77.546181,66.427505 82.770569,68.946663 88.201050,70.895439 
	C90.636749,71.769516 93.513702,72.518822 95.960083,72.069794 
	C107.411316,69.967957 118.820236,69.618042 130.168335,72.249222 
	C133.356842,72.988518 135.704697,72.656166 138.506851,70.930794 
	C144.660904,67.141533 151.085556,63.708950 159.721909,64.456596 
	C159.997574,71.136703 161.187973,77.645615 160.284286,83.849503 
	C159.202744,91.274269 166.839554,94.580322 166.854874,101.090576 
	C166.855591,101.396286 167.098312,101.701424 167.172379,102.636658 
	C167.432251,103.431305 167.692139,104.225945 167.828613,105.932465 
	C167.877487,109.618538 167.926361,113.304619 167.695770,117.707230 
	C166.065826,123.447952 164.435898,129.188690 162.264664,135.308731 
	C155.071884,147.120407 143.125488,150.639145 130.461792,152.846497 
	C131.814835,156.607391 132.966614,159.808853 133.987228,163.681580 
	C134.195114,164.519730 134.403000,165.357895 134.629898,167.107742 
	C134.610489,174.432602 134.573868,181.757462 134.576553,189.082321 
	C134.579224,196.345947 136.551682,197.758667 143.322769,195.219025 
	C157.986511,189.719116 170.035461,180.636932 180.004333,168.604065 
	C190.426559,156.023987 196.040634,141.315506 197.999130,125.432373 
	C200.975830,101.291786 194.827408,79.719978 179.110413,60.559738 
	C166.954773,45.741085 151.790970,36.612835 133.693924,31.666122 
	C132.269119,31.276659 130.587479,31.826851 128.760712,31.205912 
	C119.957451,28.167839 111.009163,28.415464 101.165390,29.916683 
	C95.442574,31.357508 89.719749,32.798332 83.281647,34.270294 
	C71.344765,38.941959 60.549747,45.349533 51.252796,55.231358 
	C43.117878,63.894955 36.487377,73.490944 32.308357,85.432487 
	C30.846134,92.288979 29.383909,99.145477 27.672741,106.706009 
	C27.699505,107.443008 27.726269,108.180000 27.404909,109.607903 
	C27.854845,116.098862 28.304783,122.589821 28.656404,129.794678 
	C30.799826,141.563339 34.512016,152.698822 41.968082,163.034378 
	C50.919464,175.869034 62.064075,186.105484 76.823921,192.121384 
	C76.823921,192.121384 76.661469,192.324005 77.103539,192.870132 
	C80.410027,193.680710 83.895531,194.077896 86.975517,195.411575 
	C90.447067,196.914825 91.461746,194.851654 91.610405,192.540634 
	C91.944824,187.341721 91.715294,182.106522 91.715294,177.902634 
	C83.889877,176.873993 76.944946,175.961075 69.857330,174.781555 
	C69.857330,174.781555 69.555107,174.791672 69.111092,174.220245 
	C63.049427,170.125473 61.650814,162.922791 58.135319,156.686249 
	C58.651154,155.488953 59.166985,154.291656 59.682819,153.094376 
	C59.264824,152.895920 58.846828,152.697479 58.428837,152.499039 
	C57.852032,153.688782 57.275227,154.878525 56.064480,155.774445 
	C55.114719,155.152710 54.164963,154.530975 52.928753,153.348297 
	C52.463406,152.943939 51.998062,152.539581 52.218426,152.082108 
M64.483322,160.590683 
	C64.483322,160.590683 64.415085,160.476715 64.483322,160.590683 
M66.405830,163.481140 
	C66.405830,163.481140 66.523148,163.409164 66.405830,163.481140 
z"/>
<path fill="#101219" opacity="1.000000" stroke="none" 
	d="
M134.118393,163.010315 
	C132.966614,159.808853 131.814835,156.607391 130.461792,152.846497 
	C143.125488,150.639145 155.071884,147.120407 162.908569,135.143829 
	C164.885345,135.133438 166.218231,135.287949 166.291458,135.296448 
	C167.132660,132.368729 168.217239,130.091003 168.357758,127.756454 
	C168.572510,124.188469 168.135529,120.581253 167.975220,116.990692 
	C167.926361,113.304619 167.877487,109.618538 168.148651,105.296059 
	C168.055222,103.775375 167.641769,102.891106 167.228317,102.006828 
	C167.098312,101.701424 166.855591,101.396286 166.854874,101.090576 
	C166.839554,94.580322 159.202744,91.274269 160.284286,83.849503 
	C161.187973,77.645615 159.997574,71.136703 159.721909,64.456596 
	C151.085556,63.708950 144.660904,67.141533 138.506851,70.930794 
	C135.704697,72.656166 133.356842,72.988518 130.168335,72.249222 
	C118.820236,69.618042 107.411316,69.967957 95.960083,72.069794 
	C93.513702,72.518822 90.636749,71.769516 88.201050,70.895439 
	C82.770569,68.946663 77.546181,66.427505 72.130836,64.430901 
	C69.566513,63.485451 67.409454,64.470650 67.086929,67.505486 
	C66.582497,72.251930 65.112648,77.297783 66.165092,81.713058 
	C67.727592,88.268120 63.627747,91.704582 60.817493,96.081123 
	C60.418751,96.702110 60.152626,97.450012 59.992401,98.176086 
	C57.862614,107.827194 57.582062,117.517769 60.466026,127.022598 
	C63.365318,136.577942 69.421310,143.690170 78.562202,147.940292 
	C81.092819,149.116913 83.789360,149.936661 86.756088,151.406036 
	C88.204750,154.542114 89.307083,157.192307 90.923767,161.079071 
	C83.916069,161.079071 78.206238,161.079071 72.489525,161.079071 
	C72.697990,158.097519 72.844963,155.995453 72.998192,153.803879 
	C67.023003,154.761261 65.429825,153.198868 64.677589,146.485413 
	C61.533302,145.743362 58.546951,145.052109 55.567493,144.332321 
	C50.994640,143.227585 49.689529,144.353622 50.037033,149.350555 
	C50.026260,149.576279 49.891502,150.007690 49.741360,150.113434 
	C49.739498,150.474045 49.887779,150.728912 50.016251,150.984116 
	C49.996445,150.984451 50.027149,150.956985 50.018738,151.374817 
	C49.753990,153.418030 49.210922,155.066193 49.337627,156.661133 
	C49.428856,157.809464 50.412872,158.886871 51.359509,160.154510 
	C53.416275,160.788483 55.112186,161.263885 56.714584,161.713074 
	C56.832920,162.510986 56.985134,163.003693 56.964550,163.489059 
	C56.864429,165.849716 57.923656,169.247345 54.406403,169.501419 
	C51.332569,169.723465 48.966541,168.125137 48.833099,164.081970 
	C48.717331,160.574417 46.077602,160.086288 41.811043,162.386597 
	C34.512016,152.698822 30.799826,141.563339 29.091143,129.414841 
	C30.544998,128.823456 31.564116,128.611893 31.563814,128.611954 
	C31.204779,125.594933 30.863579,123.142906 30.631754,120.680573 
	C30.299721,117.153839 30.117659,113.610802 29.677362,110.099075 
	C29.618799,109.631973 28.422459,109.307518 27.753033,108.917000 
	C27.726269,108.180000 27.699505,107.443008 28.196543,106.354187 
	C29.739918,105.310623 31.509203,104.749527 31.656258,103.905716 
	C32.548534,98.785812 33.145832,93.608864 33.657860,88.432785 
	C33.769375,87.305481 33.133667,86.104263 32.842106,84.937088 
	C36.487377,73.490944 43.117878,63.894955 51.946800,55.108742 
	C57.192978,58.616184 60.671864,54.790703 64.672485,53.210217 
	C64.888573,51.719677 65.118698,50.132332 65.407120,48.142879 
	C69.643723,49.830147 70.930817,47.320610 72.044891,44.105095 
	C72.536530,42.686077 74.053055,40.400028 74.840881,40.503975 
	C79.976875,41.181648 81.211632,36.652584 83.996933,34.239159 
	C89.719749,32.798332 95.442574,31.357508 101.614349,30.295574 
	C102.538017,31.309320 103.062653,32.524731 103.479683,32.488869 
	C107.472389,32.145477 111.439339,31.507288 115.431076,31.145405 
	C116.688194,31.031437 118.444923,31.035515 119.206100,31.774969 
	C122.548264,35.021759 125.741005,33.326641 129.025192,31.940338 
	C130.587479,31.826851 132.269119,31.276659 133.693924,31.666122 
	C151.790970,36.612835 166.954773,45.741085 179.110413,60.559738 
	C194.827408,79.719978 200.975830,101.291786 197.999130,125.432373 
	C196.040634,141.315506 190.426559,156.023987 180.004333,168.604065 
	C170.035461,180.636932 157.986511,189.719116 143.322769,195.219025 
	C136.551682,197.758667 134.579224,196.345947 134.576553,189.082321 
	C134.573868,181.757462 134.610489,174.432602 134.919434,166.476501 
	C134.845444,164.900284 134.481918,163.955307 134.118393,163.010315 
z"/>
<path fill="#111216" opacity="1.000000" stroke="none" 
	d="
M41.889565,162.710480 
	C46.077602,160.086288 48.717331,160.574417 48.833099,164.081970 
	C48.966541,168.125137 51.332569,169.723465 54.406403,169.501419 
	C57.923656,169.247345 56.864429,165.849716 56.964550,163.489059 
	C56.985134,163.003693 56.832920,162.510986 56.714584,161.713074 
	C55.112186,161.263885 53.416275,160.788483 51.389130,159.824158 
	C51.777000,157.526581 52.496101,155.717911 53.215202,153.909241 
	C54.164963,154.530975 55.114719,155.152710 56.440643,156.141144 
	C57.160728,156.779282 57.504654,157.050705 57.848579,157.322128 
	C61.650814,162.922791 63.049427,170.125473 68.957451,174.583191 
	C67.305969,176.215973 65.673622,177.363922 64.366562,178.806595 
	C63.704674,179.537155 63.110802,181.036972 63.438232,181.754593 
	C63.757374,182.454041 65.285149,182.916321 66.291382,182.932983 
	C70.421570,183.001343 71.495758,180.627640 70.000008,175.048172 
	C76.944946,175.961075 83.889877,176.873993 91.715294,177.902634 
	C91.715294,182.106522 91.944824,187.341721 91.610405,192.540634 
	C91.461746,194.851654 90.447067,196.914825 86.975517,195.411575 
	C83.895531,194.077896 80.410027,193.680710 77.311844,192.506775 
	C81.416321,192.065903 84.974915,191.384125 84.821175,186.410980 
	C84.800529,185.743164 81.883499,184.489700 81.804649,184.597946 
	C79.987137,187.092850 75.633469,187.961258 76.627708,192.291580 
	C62.064075,186.105484 50.919464,175.869034 41.889565,162.710480 
M58.712532,173.459686 
	C58.600643,174.037125 58.488754,174.614563 58.376865,175.192001 
	C58.786816,175.197083 59.196770,175.202179 59.606720,175.207275 
	C59.509033,174.627106 59.411346,174.046936 58.712532,173.459686 
M62.201603,174.607376 
	C62.205742,174.213974 62.209881,173.820587 62.214020,173.427185 
	C62.050770,173.425537 61.745617,173.412994 61.744781,173.423843 
	C61.714699,173.815399 61.712975,174.209122 62.201603,174.607376 
z"/>
<path fill="#131217" opacity="1.000000" stroke="none" 
	d="
M50.047806,149.124817 
	C49.689529,144.353622 50.994640,143.227585 55.567493,144.332321 
	C58.546951,145.052109 61.533302,145.743362 64.677589,146.485413 
	C65.429825,153.198868 67.023003,154.761261 72.998192,153.803879 
	C72.844963,155.995453 72.697990,158.097519 72.489525,161.079071 
	C78.206238,161.079071 83.916069,161.079071 90.923767,161.079071 
	C89.307083,157.192307 88.204750,154.542114 87.051163,151.537872 
	C89.934341,151.830765 92.868782,152.477737 95.752113,153.113434 
	C94.923882,155.186142 93.601120,157.314270 93.263580,159.588608 
	C92.572128,164.247635 89.680305,165.590164 85.544121,166.177780 
	C75.361961,167.624405 69.291183,162.231277 64.369942,154.297516 
	C61.981270,150.446640 58.435017,147.983841 52.848473,148.303772 
	C51.438259,148.638123 50.743034,148.881470 50.047806,149.124817 
z"/>
<path fill="#101114" opacity="1.000000" stroke="none" 
	d="
M83.639290,34.254726 
	C81.211632,36.652584 79.976875,41.181648 74.840881,40.503975 
	C74.053055,40.400028 72.536530,42.686077 72.044891,44.105095 
	C70.930817,47.320610 69.643723,49.830147 65.407120,48.142879 
	C65.118698,50.132332 64.888573,51.719677 64.672485,53.210217 
	C60.671864,54.790703 57.192978,58.616184 52.246120,54.965385 
	C60.549747,45.349533 71.344765,38.941959 83.639290,34.254726 
z"/>
<path fill="#0E0E13" opacity="1.000000" stroke="none" 
	d="
M128.892944,31.573124 
	C125.741005,33.326641 122.548264,35.021759 119.206100,31.774969 
	C118.444923,31.035515 116.688194,31.031437 115.431076,31.145405 
	C111.439339,31.507288 107.472389,32.145477 103.479683,32.488869 
	C103.062653,32.524731 102.538017,31.309320 102.032043,30.349642 
	C111.009163,28.415464 119.957451,28.167839 128.892944,31.573124 
z"/>
<path fill="#0F0F12" opacity="1.000000" stroke="none" 
	d="
M32.575233,85.184784 
	C33.133667,86.104263 33.769375,87.305481 33.657860,88.432785 
	C33.145832,93.608864 32.548534,98.785812 31.656258,103.905716 
	C31.509203,104.749527 29.739918,105.310623 28.321014,106.002167 
	C29.383909,99.145477 30.846134,92.288979 32.575233,85.184784 
z"/>
<path fill="#0F0F12" opacity="1.000000" stroke="none" 
	d="
M27.578970,109.262451 
	C28.422459,109.307518 29.618799,109.631973 29.677362,110.099075 
	C30.117659,113.610802 30.299721,117.153839 30.631754,120.680573 
	C30.863579,123.142906 31.204779,125.594933 31.563814,128.611954 
	C31.564116,128.611893 30.544998,128.823456 29.140301,129.057892 
	C28.304783,122.589821 27.854845,116.098862 27.578970,109.262451 
z"/>
<path fill="#0B0C10" opacity="1.000000" stroke="none" 
	d="
M167.835495,117.348961 
	C168.135529,120.581253 168.572510,124.188469 168.357758,127.756454 
	C168.217239,130.091003 167.132660,132.368729 166.291458,135.296448 
	C166.218231,135.287949 164.885345,135.133438 163.179214,134.954163 
	C164.435898,129.188690 166.065826,123.447952 167.835495,117.348961 
z"/>
<path fill="#101219" opacity="1.000000" stroke="none" 
	d="
M69.928665,174.914856 
	C71.495758,180.627640 70.421570,183.001343 66.291382,182.932983 
	C65.285149,182.916321 63.757374,182.454041 63.438232,181.754593 
	C63.110802,181.036972 63.704674,179.537155 64.366562,178.806595 
	C65.673622,177.363922 67.305969,176.215973 69.179459,174.868896 
	C69.555107,174.791672 69.857330,174.781555 69.928665,174.914856 
z"/>
<path fill="#131217" opacity="1.000000" stroke="none" 
	d="
M53.071976,153.628769 
	C52.496101,155.717911 51.777000,157.526581 51.028275,159.665588 
	C50.412872,158.886871 49.428856,157.809464 49.337627,156.661133 
	C49.210922,155.066193 49.753990,153.418030 50.210403,151.524963 
	C50.784557,151.549911 51.158638,151.842560 51.532715,152.135223 
	C51.998062,152.539581 52.463406,152.943939 53.071976,153.628769 
z"/>
<path fill="#F0F1F2" opacity="1.000000" stroke="none" 
	d="
M51.875572,152.108673 
	C51.158638,151.842560 50.784557,151.549911 50.218811,151.107117 
	C50.027149,150.956985 49.996445,150.984451 50.027321,150.733093 
	C50.002632,150.323730 49.947067,150.165710 49.891502,150.007690 
	C49.891502,150.007690 50.026260,149.576279 50.037033,149.350555 
	C50.743034,148.881470 51.438259,148.638123 52.499531,148.439743 
	C53.247749,149.530792 53.629917,150.576859 54.064915,151.767517 
	C53.476410,151.867783 52.847416,151.974945 51.875572,152.108673 
z"/>
<path fill="#F0F1F2" opacity="1.000000" stroke="none" 
	d="
M57.991951,157.004181 
	C57.504654,157.050705 57.160728,156.779282 56.757614,156.288055 
	C57.275227,154.878525 57.852032,153.688782 58.428837,152.499039 
	C58.846828,152.697479 59.264824,152.895920 59.682819,153.094376 
	C59.166985,154.291656 58.651154,155.488953 57.991951,157.004181 
z"/>
<path fill="#020206" opacity="1.000000" stroke="none" 
	d="
M134.052811,163.345947 
	C134.481918,163.955307 134.845444,164.900284 134.909943,166.020660 
	C134.403000,165.357895 134.195114,164.519730 134.052811,163.345947 
z"/>
<path fill="#0B0C10" opacity="1.000000" stroke="none" 
	d="
M167.200348,102.321747 
	C167.641769,102.891106 168.055222,103.775375 168.210342,104.840118 
	C167.692139,104.225945 167.432251,103.431305 167.200348,102.321747 
z"/>
<path fill="#F1F2F2" opacity="1.000000" stroke="none" 
	d="
M64.449203,160.533691 
	C64.415085,160.476715 64.483322,160.590683 64.449203,160.533691 
z"/>
<path fill="#F1F2F2" opacity="1.000000" stroke="none" 
	d="
M66.464493,163.445160 
	C66.523148,163.409164 66.405830,163.481140 66.464493,163.445160 
z"/>
<path fill="#131217" opacity="1.000000" stroke="none" 
	d="
M49.741360,150.113434 
	C49.947067,150.165710 50.002632,150.323730 50.047127,150.732758 
	C49.887779,150.728912 49.739498,150.474045 49.741360,150.113434 
z"/>
<path fill="#101219" opacity="1.000000" stroke="none" 
	d="
M76.725815,192.206482 
	C75.633469,187.961258 79.987137,187.092850 81.804649,184.597946 
	C81.883499,184.489700 84.800529,185.743164 84.821175,186.410980 
	C84.974915,191.384125 81.416321,192.065903 77.090805,192.233704 
	C76.661469,192.324005 76.823921,192.121384 76.725815,192.206482 
z"/>
<path fill="#101219" opacity="1.000000" stroke="none" 
	d="
M59.013100,173.463226 
	C59.411346,174.046936 59.509033,174.627106 59.606720,175.207275 
	C59.196770,175.202179 58.786816,175.197083 58.376865,175.192001 
	C58.488754,174.614563 58.600643,174.037125 59.013100,173.463226 
z"/>
<path fill="#101219" opacity="1.000000" stroke="none" 
	d="
M61.954468,174.604965 
	C61.712975,174.209122 61.714699,173.815399 61.744781,173.423843 
	C61.745617,173.412994 62.050770,173.425537 62.214020,173.427185 
	C62.209881,173.820587 62.205742,174.213974 61.954468,174.604965 
z"/>
</svg>