<svg version="1.1" id="Layer_1" xmlns="http://www.w3.org/2000/svg" xmlns:xlink="http://www.w3.org/1999/xlink" x="0px" y="0px"
	 width="100" viewBox="0 0 225 225" enable-background="new 0 0 225 225" xml:space="preserve">
<path fill="#FEFEFE" opacity="1.000000" stroke="none" 
	d="
M149.000000,1.000000 
	C150.388885,1.000000 151.777786,1.000000 153.609711,1.468011 
	C154.052734,11.540912 154.052734,21.145802 154.052734,30.800837 
	C162.307709,30.800837 170.166336,30.800837 178.044403,30.800837 
	C178.044403,27.548227 178.044403,24.606384 178.044403,21.247318 
	C173.399414,21.247318 168.984909,21.247318 164.000000,21.247318 
	C164.000000,14.222846 164.000000,7.611423 164.000000,1.000000 
	C184.655136,1.000000 205.310287,1.000000 225.982712,1.000000 
	C225.982712,75.946655 225.982712,150.893311 225.982712,225.919983 
	C151.095245,225.919983 76.190369,225.919983 1.142746,225.919983 
	C1.142746,151.000198 1.142746,76.000137 1.142746,1.000000 
	C16.746740,1.000000 32.404713,1.000000 48.500591,1.467778 
	C48.938499,11.544918 48.938499,21.154280 48.938499,30.893562 
	C52.471767,30.893562 55.545570,30.893562 59.165695,30.893562 
	C59.165695,27.490154 59.165695,24.279100 59.165695,21.358110 
	C62.483227,21.358110 65.247887,21.358110 68.369415,21.358110 
	C68.369415,24.764273 68.369415,27.858051 68.369415,30.766346 
	C71.827621,30.766346 74.901260,30.766346 78.000000,30.766346 
	C78.000000,20.621027 78.000000,10.810513 78.000000,1.000000 
	C79.388893,1.000000 80.777779,1.000000 82.504486,1.456836 
	C82.842293,4.847723 82.842293,7.781775 82.842293,11.096104 
	C86.046906,11.096104 88.806404,11.096104 91.863098,11.096104 
	C91.863098,17.933096 91.863098,24.371729 91.863098,30.793343 
	C95.246758,30.793343 98.308647,30.793343 101.766174,30.793343 
	C101.766174,24.089909 101.766174,17.695738 101.766174,10.822712 
	C104.883247,10.822712 107.598328,10.822712 110.234673,10.822712 
	C110.515823,7.214245 110.757912,4.107123 111.000000,1.000000 
	C112.066673,1.000000 113.133339,1.000000 114.599037,1.468656 
	C114.998062,11.537916 114.998062,21.138519 114.998062,30.897774 
	C118.486748,30.897774 121.550301,30.897774 125.034737,30.897774 
	C125.034737,26.343054 125.034737,21.970139 125.034737,16.519686 
	C127.699677,20.466450 129.735077,23.480881 132.027985,26.876669 
	C134.374619,23.330976 136.346954,20.350832 138.319290,17.370687 
	C138.653702,17.522617 138.988098,17.674549 139.322510,17.826479 
	C139.322510,22.230961 139.322510,26.635441 139.322510,30.749729 
	C142.787506,30.749729 145.857513,30.749729 149.000000,30.749729 
	C149.000000,20.599159 149.000000,10.799580 149.000000,1.000000 
M175.630859,208.123840 
	C176.714340,206.744598 178.375534,205.506180 178.753601,203.955017 
	C179.414429,201.243637 179.246048,198.336456 179.495590,195.517548 
	C181.343933,174.637222 183.193329,153.756958 185.075165,132.879639 
	C186.583755,116.143173 188.164856,99.413231 189.663712,82.675919 
	C190.772552,70.293922 191.800934,57.904716 192.884628,45.292160 
	C139.835495,45.292160 87.099487,45.292160 34.132347,45.292160 
	C35.492363,61.271397 36.786003,76.992233 38.176586,92.704491 
	C41.433258,129.501785 44.766365,166.292374 47.965519,203.094620 
	C48.230034,206.137497 49.045326,207.663528 52.330811,208.535202 
	C71.589531,213.644882 90.750839,219.120728 109.980743,224.341476 
	C111.967003,224.880737 114.331192,225.075821 116.279274,224.545776 
	C135.822327,219.228287 155.315002,213.725510 175.630859,208.123840 
z"/>
<path fill="#020202" opacity="1.000000" stroke="none" 
	d="
M148.541931,1.000000 
	C149.000000,10.799580 149.000000,20.599159 149.000000,30.749729 
	C145.857513,30.749729 142.787506,30.749729 139.322510,30.749729 
	C139.322510,26.635441 139.322510,22.230961 139.322510,17.826479 
	C138.988098,17.674549 138.653702,17.522617 138.319290,17.370687 
	C136.346954,20.350832 134.374619,23.330976 132.027985,26.876669 
	C129.735077,23.480881 127.699677,20.466450 125.034737,16.519686 
	C125.034737,21.970139 125.034737,26.343054 125.034737,30.897774 
	C121.550301,30.897774 118.486748,30.897774 114.998062,30.897774 
	C114.998062,21.138519 114.998062,11.537916 114.999031,1.468656 
	C118.361290,1.000000 121.722572,1.000000 125.512543,1.359114 
	C127.903564,4.887812 129.865891,8.057396 132.298569,11.986679 
	C134.462341,7.817077 136.231171,4.408538 138.000000,1.000000 
	C141.361282,1.000000 144.722580,1.000000 148.541931,1.000000 
z"/>
<path fill="#020202" opacity="1.000000" stroke="none" 
	d="
M77.545891,1.000000 
	C78.000000,10.810513 78.000000,20.621027 78.000000,30.766346 
	C74.901260,30.766346 71.827621,30.766346 68.369415,30.766346 
	C68.369415,27.858051 68.369415,24.764273 68.369415,21.358110 
	C65.247887,21.358110 62.483227,21.358110 59.165695,21.358110 
	C59.165695,24.279100 59.165695,27.490154 59.165695,30.893562 
	C55.545570,30.893562 52.471767,30.893562 48.938499,30.893562 
	C48.938499,21.154280 48.938499,11.544918 48.969250,1.467778 
	C52.030594,1.000000 55.061188,1.000000 58.537750,1.460316 
	C58.983719,4.840007 58.983719,7.759382 58.983719,10.679888 
	C62.310684,10.679888 65.176620,10.679888 68.000000,10.679888 
	C68.000000,7.252035 68.000000,4.126018 68.000000,1.000000 
	C71.030594,1.000000 74.061188,1.000000 77.545891,1.000000 
z"/>
<path fill="#070707" opacity="1.000000" stroke="none" 
	d="
M110.531342,1.000000 
	C110.757912,4.107123 110.515823,7.214245 110.234673,10.822712 
	C107.598328,10.822712 104.883247,10.822712 101.766174,10.822712 
	C101.766174,17.695738 101.766174,24.089909 101.766174,30.793343 
	C98.308647,30.793343 95.246758,30.793343 91.863098,30.793343 
	C91.863098,24.371729 91.863098,17.933096 91.863098,11.096104 
	C88.806404,11.096104 86.046906,11.096104 82.842293,11.096104 
	C82.842293,7.781775 82.842293,4.847723 82.921143,1.456836 
	C92.020897,1.000000 101.041786,1.000000 110.531342,1.000000 
z"/>
<path fill="#050505" opacity="1.000000" stroke="none" 
	d="
M163.545898,1.000000 
	C164.000000,7.611423 164.000000,14.222846 164.000000,21.247318 
	C168.984909,21.247318 173.399414,21.247318 178.044403,21.247318 
	C178.044403,24.606384 178.044403,27.548227 178.044403,30.800837 
	C170.166336,30.800837 162.307709,30.800837 154.052734,30.800837 
	C154.052734,21.145802 154.052734,11.540912 154.026367,1.468011 
	C157.030594,1.000000 160.061188,1.000000 163.545898,1.000000 
z"/>
<path fill="#FEFEFE" opacity="1.000000" stroke="none" 
	d="
M67.550018,1.000000 
	C68.000000,4.126018 68.000000,7.252035 68.000000,10.679888 
	C65.176620,10.679888 62.310684,10.679888 58.983719,10.679888 
	C58.983719,7.759382 58.983719,4.840007 58.991859,1.460316 
	C61.700016,1.000000 64.400032,1.000000 67.550018,1.000000 
z"/>
<path fill="#F3F4F4" opacity="1.000000" stroke="none" 
	d="
M137.539368,1.000000 
	C136.231171,4.408538 134.462341,7.817077 132.298569,11.986679 
	C129.865891,8.057396 127.903564,4.887812 125.970612,1.359114 
	C129.692902,1.000000 133.385818,1.000000 137.539368,1.000000 
z"/>
<path fill="#E44E27" opacity="1.000000" stroke="none" 
	d="
M175.226349,208.199371 
	C155.315002,213.725510 135.822327,219.228287 116.279274,224.545776 
	C114.331192,225.075821 111.967003,224.880737 109.980743,224.341476 
	C90.750839,219.120728 71.589531,213.644882 52.330811,208.535202 
	C49.045326,207.663528 48.230034,206.137497 47.965519,203.094620 
	C44.766365,166.292374 41.433258,129.501785 38.176586,92.704491 
	C36.786003,76.992233 35.492363,61.271397 34.132347,45.292160 
	C87.099487,45.292160 139.835495,45.292160 192.884628,45.292160 
	C191.800934,57.904716 190.772552,70.293922 189.663712,82.675919 
	C188.164856,99.413231 186.583755,116.143173 185.075165,132.879639 
	C183.193329,153.756958 181.343933,174.637222 179.495590,195.517548 
	C179.246048,198.336456 179.414429,201.243637 178.753601,203.955017 
	C178.375534,205.506180 176.714340,206.744598 175.226349,208.199371 
M113.093651,139.813049 
	C113.093651,139.813049 113.216377,139.732864 113.085701,140.709137 
	C113.055756,150.468201 113.025818,160.227264 113.067764,170.125443 
	C113.067764,170.125443 113.090126,170.280426 112.332443,170.048553 
	C106.895386,168.556137 101.508644,166.827560 96.003525,165.654572 
	C92.353775,164.876923 90.640572,163.483765 90.816063,159.445633 
	C90.971298,155.873840 90.131752,152.258804 89.721924,148.577744 
	C83.023232,148.577744 76.634377,148.577744 69.852875,148.577744 
	C70.672424,158.355057 71.272217,167.796082 72.432465,177.167740 
	C72.632591,178.784286 74.972122,180.673569 76.751129,181.427063 
	C79.227203,182.475830 82.174980,182.341187 84.801208,183.117722 
	C94.240211,185.908661 103.628922,188.869690 113.484337,191.942429 
	C113.484337,191.942429 113.961708,191.883163 113.978745,192.834549 
	C113.978745,198.756027 113.978745,204.677505 113.978745,211.006393 
	C115.951363,210.735291 117.090347,210.705841 118.156967,210.412888 
	C131.708344,206.691147 145.271622,203.009659 158.784622,199.152374 
	C166.955521,196.820007 166.668686,196.679504 167.071045,187.799759 
	C167.460022,179.215836 168.390015,170.654266 169.167618,162.090607 
	C170.407486,148.436157 171.707626,134.787155 173.002182,121.137726 
	C173.922165,111.437653 174.969711,101.748665 175.786697,92.040123 
	C176.632996,81.983604 177.248093,71.907814 178.012848,61.844147 
	C178.218445,59.138462 177.298935,57.951130 174.382812,57.964642 
	C155.405060,58.052551 136.426575,58.041313 117.448631,57.976089 
	C114.844109,57.967136 113.906868,58.960697 113.962418,61.512405 
	C114.074707,66.670677 113.995224,71.833122 113.990112,77.460899 
	C113.990112,77.460899 113.991631,77.927811 113.471001,78.148399 
	C113.294922,78.215622 113.118835,78.282852 112.981804,78.122627 
	C112.981804,78.122627 113.012901,77.893951 112.387398,77.344910 
	C96.964767,77.236031 81.542191,77.113152 66.119370,77.062775 
	C65.405022,77.060440 64.688553,77.707397 63.704887,78.682434 
	C65.405800,98.596985 67.106720,118.511543 68.847191,138.889236 
	C83.773201,138.889236 97.869423,138.889236 112.228477,139.384903 
	C112.549187,139.564285 112.869888,139.743652 113.093651,139.813049 
z"/>
<path fill="#F1652A" opacity="1.000000" stroke="none" 
	d="
M113.994820,76.993851 
	C113.995224,71.833122 114.074707,66.670677 113.962418,61.512405 
	C113.906868,58.960697 114.844109,57.967136 117.448631,57.976089 
	C136.426575,58.041313 155.405060,58.052551 174.382812,57.964642 
	C177.298935,57.951130 178.218445,59.138462 178.012848,61.844147 
	C177.248093,71.907814 176.632996,81.983604 175.786697,92.040123 
	C174.969711,101.748665 173.922165,111.437653 173.002182,121.137726 
	C171.707626,134.787155 170.407486,148.436157 169.167618,162.090607 
	C168.390015,170.654266 167.460022,179.215836 167.071045,187.799759 
	C166.668686,196.679504 166.955521,196.820007 158.784622,199.152374 
	C145.271622,203.009659 131.708344,206.691147 118.156967,210.412888 
	C117.090347,210.705841 115.951363,210.735291 113.978745,211.006393 
	C113.978745,204.677505 113.978745,198.756027 114.120560,192.023682 
	C126.186966,187.784897 138.080582,184.242340 150.056625,181.004776 
	C153.296799,180.128860 154.643051,178.634644 154.826935,175.285233 
	C155.199722,168.494736 155.966492,161.726151 156.553864,154.947067 
	C157.595154,142.929199 158.623795,130.910233 159.723038,118.132477 
	C144.539948,118.132477 129.790848,118.132477 114.884888,117.867340 
	C114.166077,117.398315 113.604111,117.194435 113.032242,116.523148 
	C113.039078,110.139229 113.055824,104.222725 113.063202,98.197906 
	C113.053825,98.089592 112.981323,97.884613 113.445267,97.961411 
	C129.771957,98.038208 145.634705,98.038208 161.714371,98.038208 
	C162.149994,91.201126 162.539001,85.095497 162.996964,78.750099 
	C163.065903,78.510330 162.992950,78.016335 162.706268,77.711700 
	C160.608902,77.271065 158.798492,77.021400 156.987503,77.017090 
	C142.656677,76.982979 128.325729,76.995598 113.994820,76.993851 
z"/>
<path fill="#ECE5E4" opacity="1.000000" stroke="none" 
	d="
M111.965645,138.889236 
	C97.869423,138.889236 83.773201,138.889236 68.847191,138.889236 
	C67.106720,118.511543 65.405800,98.596985 64.309776,78.381943 
	C80.947411,78.018951 96.980156,77.956451 113.012901,77.893951 
	C113.012901,77.893951 112.981804,78.122627 112.990814,78.680779 
	C112.993660,85.454155 112.987495,91.669388 112.981323,97.884613 
	C112.981323,97.884613 113.053825,98.089592 112.595573,98.118088 
	C103.744598,98.181259 95.351875,98.215919 86.696396,98.212234 
	C86.268936,98.439392 86.104233,98.704895 85.862000,99.416328 
	C86.182899,103.905495 86.581322,107.948730 86.924599,112.404373 
	C87.251678,114.578407 87.633911,116.340034 88.474449,118.205917 
	C96.612541,118.242752 104.292328,118.175323 112.226074,118.167686 
	C112.645103,118.172714 112.810173,118.117950 112.948303,118.185982 
	C112.921364,118.308784 112.986343,118.551689 112.997871,118.985443 
	C113.008102,124.372292 113.120972,129.329056 112.961319,134.277054 
	C112.870239,137.099655 113.964272,138.004578 116.716805,137.989334 
	C121.473534,137.963013 126.232162,138.278503 130.779968,138.828964 
	C124.785416,139.382507 119.000893,139.557678 113.216377,139.732864 
	C113.216377,139.732864 113.093651,139.813049 113.066544,139.565521 
	C112.681496,139.175079 112.323570,139.032166 111.965645,138.889236 
z"/>
<path fill="#FFFEFD" opacity="1.000000" stroke="none" 
	d="
M130.989990,138.450607 
	C126.232162,138.278503 121.473534,137.963013 116.716805,137.989334 
	C113.964272,138.004578 112.870239,137.099655 112.961319,134.277054 
	C113.120972,129.329056 113.008102,124.372292 113.341873,118.920059 
	C114.130135,118.324760 114.585938,118.228622 115.041733,118.132477 
	C129.790848,118.132477 144.539948,118.132477 159.723038,118.132477 
	C158.623795,130.910233 157.595154,142.929199 156.553864,154.947067 
	C155.966492,161.726151 155.199722,168.494736 154.826935,175.285233 
	C154.643051,178.634644 153.296799,180.128860 150.056625,181.004776 
	C138.080582,184.242340 126.186966,187.784897 114.112045,191.547989 
	C113.961708,191.883163 113.484337,191.942429 113.263123,191.401520 
	C113.057983,184.000534 113.074051,177.140488 113.090118,170.280426 
	C113.090126,170.280426 113.067764,170.125443 113.428589,170.113724 
	C120.023109,168.429352 126.288620,166.862213 132.464890,164.999161 
	C133.774353,164.604172 135.625763,163.229050 135.752213,162.134995 
	C136.639221,154.460892 137.139328,146.742065 137.779007,138.841858 
	C135.249268,138.696060 133.119629,138.573334 130.989990,138.450607 
z"/>
<path fill="#EBE8E7" opacity="1.000000" stroke="none" 
	d="
M112.711281,170.164490 
	C113.074051,177.140488 113.057983,184.000534 113.039276,191.313522 
	C103.628922,188.869690 94.240211,185.908661 84.801208,183.117722 
	C82.174980,182.341187 79.227203,182.475830 76.751129,181.427063 
	C74.972122,180.673569 72.632591,178.784286 72.432465,177.167740 
	C71.272217,167.796082 70.672424,158.355057 69.852875,148.577744 
	C76.634377,148.577744 83.023232,148.577744 89.721924,148.577744 
	C90.131752,152.258804 90.971298,155.873840 90.816063,159.445633 
	C90.640572,163.483765 92.353775,164.876923 96.003525,165.654572 
	C101.508644,166.827560 106.895386,168.556137 112.711281,170.164490 
z"/>
<path fill="#FFFEFE" opacity="1.000000" stroke="none" 
	d="
M113.445267,97.961411 
	C112.987495,91.669388 112.993660,85.454155 112.971298,78.794510 
	C113.118835,78.282852 113.294922,78.215622 114.195862,78.114510 
	C130.617844,78.132256 146.314957,78.183899 162.119446,78.409882 
	C162.420425,78.788788 162.654160,78.924004 162.928009,78.989868 
	C162.539001,85.095497 162.149994,91.201126 161.714371,98.038208 
	C145.634705,98.038208 129.771957,98.038208 113.445267,97.961411 
z"/>
<path fill="#F1652A" opacity="1.000000" stroke="none" 
	d="
M130.779968,138.828964 
	C133.119629,138.573334 135.249268,138.696060 137.779007,138.841858 
	C137.139328,146.742065 136.639221,154.460892 135.752213,162.134995 
	C135.625763,163.229050 133.774353,164.604172 132.464890,164.999161 
	C126.288620,166.862213 120.023109,168.429352 113.392654,170.044159 
	C113.025818,160.227264 113.055756,150.468201 113.151039,140.221008 
	C119.000893,139.557678 124.785416,139.382507 130.779968,138.828964 
z"/>
<path fill="#E44008" opacity="1.000000" stroke="none" 
	d="
M112.700150,77.619431 
	C96.980156,77.956451 80.947411,78.018951 64.443871,78.066711 
	C64.688553,77.707397 65.405022,77.060440 66.119370,77.062775 
	C81.542191,77.113152 96.964767,77.236031 112.700150,77.619431 
z"/>
<path fill="#F05908" opacity="1.000000" stroke="none" 
	d="
M162.012070,78.235542 
	C146.314957,78.183899 130.617844,78.132256 114.456177,78.004211 
	C113.991631,77.927811 113.990112,77.460899 113.992462,77.227371 
	C128.325729,76.995598 142.656677,76.982979 156.987503,77.017090 
	C158.798492,77.021400 160.608902,77.271065 162.451614,77.724213 
	C162.326462,78.106094 162.169266,78.170822 162.012070,78.235542 
z"/>
<path fill="#E44516" opacity="1.000000" stroke="none" 
	d="
M112.097061,139.137070 
	C112.323570,139.032166 112.681496,139.175079 113.115013,139.620514 
	C112.869888,139.743652 112.549187,139.564285 112.097061,139.137070 
z"/>
<path fill="#E44D26" opacity="1.000000" stroke="none" 
	d="
M86.979752,111.991966 
	C86.581322,107.948730 86.182899,103.905495 86.071281,99.359283 
	C86.628258,98.723679 86.828613,98.521774 86.959152,98.250587 
	C95.351875,98.215919 103.744598,98.181259 112.604950,98.226402 
	C113.055824,104.222725 113.039078,110.139229 113.019096,116.525101 
	C113.015862,116.994453 113.003258,117.005630 112.771912,117.126389 
	C112.351082,117.534065 112.161598,117.820984 111.972122,118.107895 
	C104.292328,118.175323 96.612541,118.242752 88.470871,117.792091 
	C87.665909,115.513321 87.322823,113.752647 86.979752,111.991966 
z"/>
<path fill="#F15E18" opacity="1.000000" stroke="none" 
	d="
M114.884888,117.867340 
	C114.585938,118.228622 114.130135,118.324760 113.330338,118.486298 
	C112.986343,118.551689 112.921364,118.308784 112.957817,117.921631 
	C112.997269,117.358192 113.000259,117.181908 113.003258,117.005630 
	C113.003258,117.005630 113.015862,116.994453 113.029007,116.992508 
	C113.604111,117.194435 114.166077,117.398315 114.884888,117.867340 
z"/>
<path fill="#ECE5E4" opacity="1.000000" stroke="none" 
	d="
M162.119446,78.409882 
	C162.169266,78.170822 162.326462,78.106094 162.738312,78.028854 
	C162.992950,78.016335 163.065903,78.510330 162.996948,78.750099 
	C162.654160,78.924004 162.420425,78.788788 162.119446,78.409882 
z"/>
<path fill="#E44515" opacity="1.000000" stroke="none" 
	d="
M86.924591,112.404373 
	C87.322823,113.752647 87.665909,115.513321 88.012573,117.687828 
	C87.633911,116.340034 87.251678,114.578407 86.924591,112.404373 
z"/>
<path fill="#F1652A" opacity="1.000000" stroke="none" 
	d="
M86.696396,98.212234 
	C86.828613,98.521774 86.628258,98.723679 86.148804,98.913345 
	C86.104233,98.704895 86.268936,98.439392 86.696396,98.212234 
z"/>
<path fill="#E44515" opacity="1.000000" stroke="none" 
	d="
M112.771912,117.126389 
	C113.000259,117.181908 112.997269,117.358192 112.984756,117.798828 
	C112.810173,118.117950 112.645103,118.172714 112.226074,118.167686 
	C112.161598,117.820984 112.351082,117.534065 112.771912,117.126389 
z"/>
</svg>