<svg version="1.1" id="Layer_1" xmlns="http://www.w3.org/2000/svg" xmlns:xlink="http://www.w3.org/1999/xlink" x="0px" y="0px"
	 width="100" viewBox="0 0 225 225" enable-background="new 0 0 225 225" xml:space="preserve">
<path fill="#F6DE1E" opacity="1.000000" stroke="none" 
	d="
M201.000031,226.000000 
	C134.000031,226.000000 67.500031,226.000000 1.000029,226.000000 
	C1.000020,151.000015 1.000020,76.000046 1.000010,1.000049 
	C75.999969,1.000033 150.999939,1.000033 225.999939,1.000016 
	C225.999954,75.999962 225.999954,150.999924 225.999969,225.999939 
	C217.833359,226.000000 209.666702,226.000000 201.000031,226.000000 
M146.401947,200.150848 
	C157.318207,208.103455 169.625137,209.378098 182.501602,207.447983 
	C190.265396,206.284241 197.219162,203.218948 202.294540,196.975830 
	C212.427429,184.511597 210.165665,164.676254 197.182068,155.167465 
	C192.156128,151.486618 186.308228,148.901352 180.743896,145.990738 
	C176.197235,143.612457 171.323792,141.810333 166.946320,139.170547 
	C162.359772,136.404663 160.978058,131.899963 162.554230,127.606071 
	C164.132446,123.306519 168.938385,120.151146 173.875320,121.732353 
	C178.461960,123.201347 182.492371,126.407112 187.654633,129.354645 
	C191.607224,126.810921 196.857269,123.432198 202.149841,120.026100 
	C194.757629,106.737572 183.258759,102.168762 169.287338,103.320869 
	C154.739700,104.520493 144.709808,112.601097 142.088608,124.285568 
	C138.958313,138.239380 144.310852,150.253525 157.306870,158.042770 
	C160.418686,159.907852 163.773575,161.375092 167.050461,162.955170 
	C171.975204,165.329834 177.037415,167.443710 181.839020,170.042053 
	C185.991409,172.289108 188.044281,175.946213 187.160568,180.852066 
	C186.304428,185.604996 182.925003,187.875793 178.678375,188.930649 
	C169.210144,191.282547 161.300247,188.587143 155.063263,181.077728 
	C153.944839,179.731140 152.930664,178.297943 151.907135,176.955582 
	C146.036957,180.410217 140.654160,183.578033 134.228210,187.359741 
	C138.431091,191.861755 142.115326,195.808212 146.401947,200.150848 
M122.112549,104.495781 
	C115.698235,104.495781 109.283920,104.495781 102.521912,104.495781 
	C102.521912,122.907982 102.549362,140.692841 102.508217,158.477554 
	C102.492050,165.463165 102.419144,172.451645 102.186638,179.432632 
	C102.045189,183.679840 100.519600,187.414795 96.113014,188.821869 
	C91.258904,190.371857 86.473083,190.080399 82.720734,186.116364 
	C80.698616,183.980164 79.083214,181.458984 77.121498,178.899033 
	C71.597137,182.258530 66.005524,185.658905 60.474087,189.022705 
	C68.031265,204.213303 83.392448,211.038330 100.247887,207.538223 
	C112.694122,204.953720 120.234146,197.647171 122.614861,185.233047 
	C123.297585,181.673019 123.313141,177.950623 123.323563,174.301773 
	C123.384865,152.830460 123.363434,131.358841 123.336235,109.887375 
	C123.334152,108.246033 123.072197,106.605019 122.112549,104.495781 
z"/>
<path fill="#020200" opacity="1.000000" stroke="none" 
	d="
M146.100769,199.952759 
	C142.115326,195.808212 138.431091,191.861755 134.228210,187.359741 
	C140.654160,183.578033 146.036957,180.410217 151.907135,176.955582 
	C152.930664,178.297943 153.944839,179.731140 155.063263,181.077728 
	C161.300247,188.587143 169.210144,191.282547 178.678375,188.930649 
	C182.925003,187.875793 186.304428,185.604996 187.160568,180.852066 
	C188.044281,175.946213 185.991409,172.289108 181.839020,170.042053 
	C177.037415,167.443710 171.975204,165.329834 167.050461,162.955170 
	C163.773575,161.375092 160.418686,159.907852 157.306870,158.042770 
	C144.310852,150.253525 138.958313,138.239380 142.088608,124.285568 
	C144.709808,112.601097 154.739700,104.520493 169.287338,103.320869 
	C183.258759,102.168762 194.757629,106.737572 202.149841,120.026100 
	C196.857269,123.432198 191.607224,126.810921 187.654633,129.354645 
	C182.492371,126.407112 178.461960,123.201347 173.875320,121.732353 
	C168.938385,120.151146 164.132446,123.306519 162.554230,127.606071 
	C160.978058,131.899963 162.359772,136.404663 166.946320,139.170547 
	C171.323792,141.810333 176.197235,143.612457 180.743896,145.990738 
	C186.308228,148.901352 192.156128,151.486618 197.182068,155.167465 
	C210.165665,164.676254 212.427429,184.511597 202.294540,196.975830 
	C197.219162,203.218948 190.265396,206.284241 182.501602,207.447983 
	C169.625137,209.378098 157.318207,208.103455 146.100769,199.952759 
z"/>
<path fill="#020200" opacity="1.000000" stroke="none" 
	d="
M122.521790,104.729813 
	C123.072197,106.605019 123.334152,108.246033 123.336235,109.887375 
	C123.363434,131.358841 123.384865,152.830460 123.323563,174.301773 
	C123.313141,177.950623 123.297585,181.673019 122.614861,185.233047 
	C120.234146,197.647171 112.694122,204.953720 100.247887,207.538223 
	C83.392448,211.038330 68.031265,204.213303 60.474087,189.022705 
	C66.005524,185.658905 71.597137,182.258530 77.121498,178.899033 
	C79.083214,181.458984 80.698616,183.980164 82.720734,186.116364 
	C86.473083,190.080399 91.258904,190.371857 96.113014,188.821869 
	C100.519600,187.414795 102.045189,183.679840 102.186638,179.432632 
	C102.419144,172.451645 102.492050,165.463165 102.508217,158.477554 
	C102.549362,140.692841 102.521912,122.907982 102.521912,104.495781 
	C109.283920,104.495781 115.698235,104.495781 122.521790,104.729813 
z"/>
</svg>