<svg version="1.1" id="Layer_1" xmlns="http://www.w3.org/2000/svg" xmlns:xlink="http://www.w3.org/1999/xlink" x="0px" y="0px"
	 width="100" viewBox="0 0 225 225" enable-background="new 0 0 225 225" xml:space="preserve">
<path fill="#FEFEFF" opacity="1.000000" stroke="none" 
	d="
M150.000000,226.000000 
	C100.000000,226.000000 50.500008,226.000000 1.000007,226.000000 
	C1.000004,151.000000 1.000004,76.000015 1.000002,1.000017 
	C75.999992,1.000011 150.999985,1.000011 225.999969,1.000006 
	C225.999985,75.999985 225.999985,150.999969 226.000000,225.999969 
	C200.833328,226.000000 175.666672,226.000000 150.000000,226.000000 
M168.470566,207.017029 
	C181.087677,201.891525 193.669983,196.677277 206.347885,191.706818 
	C209.284775,190.555405 210.271484,189.040466 210.264603,185.867737 
	C210.159088,137.215256 210.151718,88.562355 210.275787,39.909954 
	C210.284485,36.502579 209.235291,35.021290 206.083481,33.816479 
	C192.742249,28.716606 179.469147,23.426537 166.293793,17.912931 
	C162.933823,16.506859 160.995483,17.210220 158.568512,19.655027 
	C135.443970,42.949551 112.198906,66.124451 88.981483,89.326721 
	C87.710701,90.596672 86.377975,91.804626 84.882523,93.223152 
	C68.616745,80.420715 52.549702,67.774696 36.329571,55.008179 
	C30.677589,57.805897 24.973068,60.486153 19.441164,63.484844 
	C18.287878,64.110008 17.071777,65.909538 17.066319,67.172981 
	C16.934584,97.663673 16.935406,128.155182 17.062159,158.645905 
	C17.067472,159.924774 18.210251,161.757950 19.344997,162.378357 
	C24.877090,165.402969 30.586763,168.102783 36.313591,170.957382 
	C52.661545,158.235184 68.904732,145.594513 85.318886,132.820786 
	C109.644768,157.196091 133.718216,181.187134 157.582809,205.384140 
	C160.869171,208.716278 163.696548,210.092957 168.470566,207.017029 
z"/>
<path fill="#017ACC" opacity="1.000000" stroke="none" 
	d="
M168.099228,207.138580 
	C163.696548,210.092957 160.869171,208.716278 157.582809,205.384140 
	C133.718216,181.187134 109.644768,157.196091 85.318886,132.820786 
	C68.904732,145.594513 52.661545,158.235184 36.313591,170.957382 
	C30.586763,168.102783 24.877090,165.402969 19.344997,162.378357 
	C18.210251,161.757950 17.067472,159.924774 17.062159,158.645905 
	C16.935406,128.155182 16.934584,97.663673 17.066319,67.172981 
	C17.071777,65.909538 18.287878,64.110008 19.441164,63.484844 
	C24.973068,60.486153 30.677589,57.805897 36.329571,55.008179 
	C52.549702,67.774696 68.616745,80.420715 84.882523,93.223152 
	C86.377975,91.804626 87.710701,90.596672 88.981483,89.326721 
	C112.198906,66.124451 135.443970,42.949551 158.568512,19.655027 
	C160.995483,17.210220 162.933823,16.506859 166.293793,17.912931 
	C179.469147,23.426537 192.742249,28.716606 206.083481,33.816479 
	C209.235291,35.021290 210.284485,36.502579 210.275787,39.909954 
	C210.151718,88.562355 210.159088,137.215256 210.264603,185.867737 
	C210.271484,189.040466 209.284775,190.555405 206.347885,191.706818 
	C193.669983,196.677277 181.087677,201.891525 168.099228,207.138580 
M141.773438,136.727570 
	C148.295303,141.725906 154.817169,146.724243 161.667404,151.974228 
	C161.667404,125.642792 161.667404,100.114845 161.667404,73.892685 
	C144.647171,87.079636 128.153351,99.858742 111.222610,112.976357 
	C121.565636,121.008118 131.393753,128.640030 141.773438,136.727570 
M60.935062,108.568916 
	C52.923607,100.555168 44.912151,92.541428 36.382286,84.009117 
	C36.382286,104.076035 36.382286,122.952217 36.382286,139.510010 
	C45.348862,131.449310 55.404465,122.409615 65.910805,112.964714 
	C63.935871,111.244766 62.686459,110.156670 60.935062,108.568916 
z"/>
<path fill="#FDFEFE" opacity="1.000000" stroke="none" 
	d="
M141.497650,136.499756 
	C131.393753,128.640030 121.565636,121.008118 111.222610,112.976357 
	C128.153351,99.858742 144.647171,87.079636 161.667404,73.892685 
	C161.667404,100.114845 161.667404,125.642792 161.667404,151.974228 
	C154.817169,146.724243 148.295303,141.725906 141.497650,136.499756 
z"/>
<path fill="#F8FBFD" opacity="1.000000" stroke="none" 
	d="
M61.186054,108.818741 
	C62.686459,110.156670 63.935871,111.244766 65.910805,112.964714 
	C55.404465,122.409615 45.348862,131.449310 36.382286,139.510010 
	C36.382286,122.952217 36.382286,104.076035 36.382286,84.009117 
	C44.912151,92.541428 52.923607,100.555168 61.186054,108.818741 
z"/>
</svg>