<svg version="1.1" id="Layer_1" xmlns="http://www.w3.org/2000/svg" xmlns:xlink="http://www.w3.org/1999/xlink" x="0px" y="0px"
	 width="100" viewBox="0 0 225 225" enable-background="new 0 0 225 225" xml:space="preserve">
<path fill="#3858E9" opacity="1.000000" stroke="none" 
	d="
M157.000000,226.000000 
	C104.666672,226.000000 52.833340,226.000000 1.000007,226.000000 
	C1.000005,151.000000 1.000005,76.000015 1.000002,1.000017 
	C75.999992,1.000011 150.999985,1.000011 225.999969,1.000006 
	C225.999985,75.999985 225.999985,150.999969 226.000000,225.999969 
	C203.166672,226.000000 180.333328,226.000000 157.000000,226.000000 
M89.589470,177.963760 
	C98.595055,181.373581 107.911934,182.488266 117.508629,182.106125 
	C156.637939,180.547943 187.682907,143.012619 181.761108,104.316994 
	C175.714005,64.802567 140.114990,39.251072 100.599998,46.062920 
	C70.004425,51.337177 45.468723,79.936836 44.953629,110.926239 
	C44.447433,141.380432 60.248615,165.431046 89.589470,177.963760 
z"/>
<path fill="#FBFBFE" opacity="1.000000" stroke="none" 
	d="
M89.217445,177.848328 
	C60.248615,165.431046 44.447433,141.380432 44.953629,110.926239 
	C45.468723,79.936836 70.004425,51.337177 100.599998,46.062920 
	C140.114990,39.251072 175.714005,64.802567 181.761108,104.316994 
	C187.682907,143.012619 156.637939,180.547943 117.508629,182.106125 
	C107.911934,182.488266 98.595055,181.373581 89.217445,177.848328 
M147.114212,165.298035 
	C173.594147,147.591156 184.316818,108.024117 169.289688,88.068443 
	C167.435760,95.725197 165.842621,104.456047 163.181229,112.848129 
	C157.665024,130.242233 151.581207,147.456345 145.381348,165.068100 
	C145.759750,165.255157 146.138168,165.442230 147.114212,165.298035 
M108.854118,79.667999 
	C115.175308,79.445839 121.496239,79.116539 127.817947,79.100647 
	C128.951019,79.097794 130.087326,80.389610 131.222137,81.083649 
	C130.189545,82.080528 129.318161,83.466911 128.084320,83.977547 
	C126.473495,84.644196 124.575699,84.617447 122.233727,84.975914 
	C129.422943,106.327614 136.459686,127.226524 143.496445,148.125443 
	C145.242081,146.935059 145.811783,145.827698 146.186569,144.657883 
	C148.669342,136.908859 151.149750,129.158615 153.555695,121.385483 
	C157.182327,109.668602 154.194885,99.321251 147.737823,89.225601 
	C140.946457,78.607254 143.224213,71.520477 154.186401,67.325897 
	C138.701233,53.367695 120.596283,49.686222 101.056671,53.204128 
	C84.819374,56.127487 72.064415,65.094734 62.447418,79.026733 
	C69.076149,79.026733 74.866722,78.884857 80.641357,79.125481 
	C82.103508,79.186401 83.514862,80.466728 84.949554,81.186722 
	C83.706566,82.164589 82.593689,83.462517 81.185829,84.034805 
	C79.622131,84.670456 77.789391,84.644272 75.850571,84.940323 
	C83.301514,107.056404 90.538345,128.536942 98.205711,151.295395 
	C100.787979,143.632706 102.255989,137.079895 105.122993,131.210419 
	C111.801697,117.537422 111.477310,104.444954 104.556870,90.960335 
	C102.577049,87.102631 101.209427,84.004951 96.332947,83.915642 
	C95.305023,83.896820 94.306053,82.296310 93.293747,81.424606 
	C94.518539,80.619011 95.718536,79.177002 96.972809,79.128128 
	C100.617027,78.986145 104.283012,79.402534 108.854118,79.667999 
M116.481438,124.144554 
	C115.925140,122.799408 115.368835,121.454262 114.523125,119.409302 
	C108.669502,136.427612 103.115730,152.704941 97.446793,168.942032 
	C96.350792,172.081223 97.929451,173.413177 100.468292,173.891922 
	C111.738701,176.017166 122.882339,175.813690 133.856537,171.734879 
	C128.122757,155.967773 122.463295,140.405029 116.481438,124.144554 
M78.487579,147.030991 
	C71.537254,127.979904 64.586922,108.928818 57.447689,89.359932 
	C43.367264,116.995781 57.493244,156.628418 86.105934,168.001740 
	C83.615952,161.083374 81.215477,154.413727 78.487579,147.030991 
z"/>
<path fill="#3959E9" opacity="1.000000" stroke="none" 
	d="
M108.397285,79.633942 
	C104.283012,79.402534 100.617027,78.986145 96.972809,79.128128 
	C95.718536,79.177002 94.518539,80.619011 93.293747,81.424606 
	C94.306053,82.296310 95.305023,83.896820 96.332947,83.915642 
	C101.209427,84.004951 102.577049,87.102631 104.556870,90.960335 
	C111.477310,104.444954 111.801697,117.537422 105.122993,131.210419 
	C102.255989,137.079895 100.787979,143.632706 98.205711,151.295395 
	C90.538345,128.536942 83.301514,107.056404 75.850571,84.940323 
	C77.789391,84.644272 79.622131,84.670456 81.185829,84.034805 
	C82.593689,83.462517 83.706566,82.164589 84.949554,81.186722 
	C83.514862,80.466728 82.103508,79.186401 80.641357,79.125481 
	C74.866722,78.884857 69.076149,79.026733 62.447418,79.026733 
	C72.064415,65.094734 84.819374,56.127487 101.056671,53.204128 
	C120.596283,49.686222 138.701233,53.367695 154.186401,67.325897 
	C143.224213,71.520477 140.946457,78.607254 147.737823,89.225601 
	C154.194885,99.321251 157.182327,109.668602 153.555695,121.385483 
	C151.149750,129.158615 148.669342,136.908859 146.186569,144.657883 
	C145.811783,145.827698 145.242081,146.935059 143.496445,148.125443 
	C136.459686,127.226524 129.422943,106.327614 122.233727,84.975914 
	C124.575699,84.617447 126.473495,84.644196 128.084320,83.977547 
	C129.318161,83.466911 130.189545,82.080528 131.222137,81.083649 
	C130.087326,80.389610 128.951019,79.097794 127.817947,79.100647 
	C121.496239,79.116539 115.175308,79.445839 108.397285,79.633942 
z"/>
<path fill="#3959E9" opacity="1.000000" stroke="none" 
	d="
M116.642639,124.493423 
	C122.463295,140.405029 128.122757,155.967773 133.856537,171.734879 
	C122.882339,175.813690 111.738701,176.017166 100.468292,173.891922 
	C97.929451,173.413177 96.350792,172.081223 97.446793,168.942032 
	C103.115730,152.704941 108.669502,136.427612 114.523125,119.409302 
	C115.368835,121.454262 115.925140,122.799408 116.642639,124.493423 
z"/>
<path fill="#3959E9" opacity="1.000000" stroke="none" 
	d="
M78.651291,147.387543 
	C81.215477,154.413727 83.615952,161.083374 86.105934,168.001740 
	C57.493244,156.628418 43.367264,116.995781 57.447689,89.359932 
	C64.586922,108.928818 71.537254,127.979904 78.651291,147.387543 
z"/>
<path fill="#3959E9" opacity="1.000000" stroke="none" 
	d="
M145.730774,164.744461 
	C151.581207,147.456345 157.665024,130.242233 163.181229,112.848129 
	C165.842621,104.456047 167.435760,95.725197 169.289688,88.068443 
	C184.316818,108.024117 173.594147,147.591156 146.623062,165.238800 
	C145.998184,165.034515 145.864471,164.889496 145.730774,164.744461 
z"/>
<path fill="#3959E9" opacity="1.000000" stroke="none" 
	d="
M146.324249,165.404419 
	C146.138168,165.442230 145.759750,165.255157 145.556061,164.906281 
	C145.864471,164.889496 145.998184,165.034515 146.324249,165.404419 
z"/>
</svg>